<?xml version="1.0" encoding="UTF-8" standalone="no"?><!DOCTYPE svg PUBLIC "-//W3C//DTD SVG 1.1//EN" "http://www.w3.org/Graphics/SVG/1.1/DTD/svg11.dtd"><svg width="100%" height="100%" viewBox="0 0 200 200" version="1.1" xmlns="http://www.w3.org/2000/svg" xmlns:xlink="http://www.w3.org/1999/xlink" xml:space="preserve" xmlns:serif="http://www.serif.com/" style="fill-rule:evenodd;clip-rule:evenodd;stroke-linejoin:round;stroke-miterlimit:2;"><path d="M37.5,183.333c-3.333,0 -6.25,-1.25 -8.75,-3.75c-2.5,-2.5 -3.75,-5.416 -3.75,-8.75l0,-129.166c0,-3.334 1.25,-6.25 3.75,-8.75c2.5,-2.5 5.417,-3.75 8.75,-3.75l13.542,-0l-0,-12.5l13.541,-0l0,12.5l70.834,-0l-0,-12.5l13.541,-0l0,12.5l13.542,-0c3.333,-0 6.25,1.25 8.75,3.75c2.5,2.5 3.75,5.416 3.75,8.75l0,129.166c0,3.334 -1.25,6.25 -3.75,8.75c-2.5,2.5 -5.417,3.75 -8.75,3.75l-125,0Zm0,-12.5l125,0l0,-89.583l-125,0l0,89.583Zm0,-102.083l125,0l0,-27.083l-125,-0l0,27.083Zm0,0l0,-27.083l0,27.083Zm62.5,47.917c-2.361,-0 -4.34,-0.799 -5.937,-2.396c-1.598,-1.597 -2.396,-3.577 -2.396,-5.938c-0,-2.361 0.798,-4.34 2.396,-5.937c1.597,-1.597 3.576,-2.396 5.937,-2.396c2.361,0 4.34,0.799 5.938,2.396c1.597,1.597 2.395,3.576 2.395,5.937c0,2.361 -0.798,4.341 -2.395,5.938c-1.598,1.597 -3.577,2.396 -5.938,2.396Zm-33.333,-0c-2.361,-0 -4.341,-0.799 -5.938,-2.396c-1.597,-1.597 -2.396,-3.577 -2.396,-5.938c0,-2.361 0.799,-4.34 2.396,-5.937c1.597,-1.597 3.577,-2.396 5.938,-2.396c2.361,0 4.34,0.799 5.937,2.396c1.597,1.597 2.396,3.576 2.396,5.937c0,2.361 -0.799,4.341 -2.396,5.938c-1.597,1.597 -3.576,2.396 -5.937,2.396Zm66.666,-0c-2.361,-0 -4.34,-0.799 -5.937,-2.396c-1.597,-1.597 -2.396,-3.577 -2.396,-5.938c0,-2.361 0.799,-4.34 2.396,-5.937c1.597,-1.597 3.576,-2.396 5.937,-2.396c2.361,0 4.341,0.799 5.938,2.396c1.597,1.597 2.396,3.576 2.396,5.937c-0,2.361 -0.799,4.341 -2.396,5.938c-1.597,1.597 -3.577,2.396 -5.938,2.396Zm-33.333,33.333c-2.361,0 -4.34,-0.799 -5.937,-2.396c-1.598,-1.597 -2.396,-3.576 -2.396,-5.937c-0,-2.361 0.798,-4.341 2.396,-5.938c1.597,-1.597 3.576,-2.396 5.937,-2.396c2.361,0 4.34,0.799 5.938,2.396c1.597,1.597 2.395,3.577 2.395,5.938c0,2.361 -0.798,4.34 -2.395,5.937c-1.598,1.597 -3.577,2.396 -5.938,2.396Zm-33.333,0c-2.361,0 -4.341,-0.799 -5.938,-2.396c-1.597,-1.597 -2.396,-3.576 -2.396,-5.937c0,-2.361 0.799,-4.341 2.396,-5.938c1.597,-1.597 3.577,-2.396 5.938,-2.396c2.361,0 4.34,0.799 5.937,2.396c1.597,1.597 2.396,3.577 2.396,5.938c0,2.361 -0.799,4.34 -2.396,5.937c-1.597,1.597 -3.576,2.396 -5.937,2.396Zm66.666,0c-2.361,0 -4.34,-0.799 -5.937,-2.396c-1.597,-1.597 -2.396,-3.576 -2.396,-5.937c0,-2.361 0.799,-4.341 2.396,-5.938c1.597,-1.597 3.576,-2.396 5.937,-2.396c2.361,0 4.341,0.799 5.938,2.396c1.597,1.597 2.396,3.577 2.396,5.938c-0,2.361 -0.799,4.34 -2.396,5.937c-1.597,1.597 -3.577,2.396 -5.938,2.396Z" style="fill:#fff;fill-rule:nonzero;stroke:#fff;stroke-width:4.17px;"/></svg>