<svg width="206" height="60" viewBox="0 0 206 60" fill="none" xmlns="http://www.w3.org/2000/svg">
<path d="M205.592 0H0V59.2469H205.592V0Z" fill="#E60012"/>
<path d="M89.6184 19.2833C86.45 19.2833 82.8467 20.7521 80.6451 23.6925L80.6466 23.6865L80.6451 23.688L80.6466 19.7451H73.09V47.2636H80.6451V31.6051C80.6451 28.7868 82.8304 25.7913 86.8761 25.7913C90.0027 25.7913 93.238 27.9661 93.238 31.6051V47.2636H100.795V30.2049C100.795 23.8757 96.2664 19.2833 89.6184 19.2833Z" fill="white"/>
<path d="M154.501 19.7462L147.67 38.4911L140.839 19.7462H132.207L143.529 47.2558H151.809L163.132 19.7462H154.501Z" fill="white"/>
<path d="M50.5309 28.0362C51.8179 26.3083 53.8676 25.2939 56.3433 25.2939C59.0662 25.2939 61.1323 26.849 62.2003 29.1445L48.9981 34.6217C48.6377 31.8108 49.3571 29.6122 50.5309 28.0362ZM65.0484 38.8029C61.8681 41.1565 60.0508 41.718 57.1506 41.718C54.5409 41.718 52.4972 40.9077 51.0567 39.4866L70.3751 31.4727C69.9535 28.4861 68.82 25.8183 67.0757 23.7894C64.5374 20.8416 60.7807 19.282 56.2062 19.282C47.8973 19.282 41.6322 25.4116 41.6322 33.5075C41.6322 41.8134 47.9122 47.7315 57.0389 47.7315C62.1526 47.7315 67.381 45.3079 69.8269 42.4762L65.0484 38.8029Z" fill="white"/>
<path d="M40.912 40.3251H23.7371V11.5151H16.0777V47.2635H40.912V40.3251Z" fill="white"/>
<path d="M176.701 25.7573C172.481 25.7573 169.416 28.9554 169.416 33.5046C169.416 37.8482 172.662 41.2519 176.802 41.2519C181.023 41.2519 184.086 37.9659 184.086 33.5046C184.086 29.161 180.842 25.7573 176.701 25.7573ZM176.701 47.7271C168.436 47.7271 161.961 41.5707 161.961 33.5046C161.961 25.5294 168.481 19.2821 176.802 19.2821C185.066 19.2821 191.54 25.4385 191.54 33.5046C191.54 41.4783 185.021 47.7271 176.701 47.7271Z" fill="white"/>
<path d="M118.522 25.7573C114.302 25.7573 111.239 28.9554 111.239 33.5046C111.239 37.8482 114.484 41.2519 118.625 41.2519C122.845 41.2519 125.907 37.9659 125.907 33.5046C125.907 29.161 122.663 25.7573 118.522 25.7573ZM118.522 47.7271C110.258 47.7271 103.784 41.5707 103.784 33.5046C103.784 25.5294 110.303 19.2821 118.625 19.2821C126.887 19.2821 133.363 25.4385 133.363 33.5046C133.363 41.4783 126.843 47.7271 118.522 47.7271Z" fill="white"/>
</svg>
