<svg width="291" height="60" viewBox="0 0 291 60" fill="none" xmlns="http://www.w3.org/2000/svg">
<g clip-path="url(#clip0_9_39)">
<path fill-rule="evenodd" clip-rule="evenodd" d="M60.0337 48.2566V0H48.2837L30.0168 18.2566L60.0337 48.2566Z" fill="#058B44"/>
<path fill-rule="evenodd" clip-rule="evenodd" d="M0 11.7434V60H11.75L30.0168 41.7434L0 11.7434Z" fill="#6FBE44"/>
<path fill-rule="evenodd" clip-rule="evenodd" d="M11.75 60H60.0337V48.2566L41.7668 30L11.75 60Z" fill="#006547"/>
<path fill-rule="evenodd" clip-rule="evenodd" d="M48.2837 0H0V11.7434L18.2669 30L48.2837 0Z" fill="#39B54A"/>
<path fill-rule="evenodd" clip-rule="evenodd" d="M166.703 18.35H166.334L154.197 30.4806L142.059 18.35H141.691V24.2147L151.027 33.5459L141.691 42.8305V48.7465H142.064L154.127 36.5832L166.325 48.7465H166.703V42.8025L157.273 33.4713L166.703 23.9814V18.35ZM263.803 18.6812C262.095 18.6797 260.418 19.1387 258.949 20.0099C257.48 20.8811 256.273 22.1323 255.456 23.6314H255.405L254.938 19.0031H251.203V48.056H255.82V31.3251C255.82 24.5972 261.259 22.5164 265.726 23.4308V18.8398C265.087 18.7252 264.438 18.6705 263.789 18.6765L263.803 18.6812ZM229.911 22.7123C235.401 22.7123 239.547 27.126 239.547 33.5273C239.547 39.9285 235.401 44.3235 229.911 44.3235C224.543 44.3235 220.271 39.9845 220.271 33.5926C220.271 27.0607 224.524 22.7217 229.907 22.7217L229.911 22.7123ZM229.048 18.4059C222.101 18.4106 215.64 24.2613 215.64 33.5926C215.64 42.7932 222.101 48.7139 229.048 48.7139C233.408 48.7139 237.502 46.6703 239.705 42.6486H239.757L240.298 48.056H244.07V19.0031H240.298L239.761 24.4386H239.71C237.502 20.4588 233.412 18.4106 229.052 18.4106L229.048 18.4059ZM201.141 18.4059C197.266 18.4059 194.465 20.4495 192.799 23.4635C191.398 20.2349 188.817 18.4059 184.667 18.4059C181.063 18.4106 178.369 20.5288 176.927 23.3282H176.819L176.282 19.0218H172.674V48.056H177.3V29.7108C177.3 26.1602 179.508 22.8243 183.542 22.8243C187.472 22.8243 189.195 25.1571 189.195 29.3562V48.056H193.821V29.3935C193.821 26.0016 196.085 22.829 200.016 22.829C203.946 22.829 205.72 25.1618 205.72 29.3608V48.056H210.351V28.689C210.351 22.6237 207.494 18.4246 201.146 18.4246L201.141 18.4059ZM124.498 22.5584C128.536 22.5584 132.644 25.1711 132.802 31.3624H115.343C115.614 26.5755 119.278 22.5584 124.502 22.5584H124.498ZM124.451 18.4059C117.29 18.4059 110.778 24.2193 110.778 33.5786C110.778 42.6719 116.753 48.6999 125.314 48.6999C129.093 48.786 132.797 47.6395 135.865 45.4339V40.521C132.977 43.0314 129.295 44.441 125.469 44.5008C120.333 44.5008 115.759 41.3142 115.338 35.3422H137.102C137.158 34.7496 137.27 33.4759 137.27 33.0094C137.27 23.4308 131.505 18.4293 124.451 18.4293V18.4059ZM85.0368 48.056H108.341V43.4604H89.7798V8.27219H85.0368V48.056ZM291 23.7947L280.384 33.4573L291 43.1711V48.7699H290.655L274.899 34.4697V48.056H270.334V6.92383H274.899V32.6175L290.585 18.35H291V23.7947Z" fill="#231F20"/>
</g>
<defs>
<clipPath id="clip0_9_39">
<rect width="291" height="60" fill="white"/>
</clipPath>
</defs>
</svg>
