<?xml version="1.0" encoding="UTF-8" standalone="no"?><!DOCTYPE svg PUBLIC "-//W3C//DTD SVG 1.1//EN" "http://www.w3.org/Graphics/SVG/1.1/DTD/svg11.dtd"><svg width="100%" height="100%" viewBox="0 0 200 200" version="1.1" xmlns="http://www.w3.org/2000/svg" xmlns:xlink="http://www.w3.org/1999/xlink" xml:space="preserve" xmlns:serif="http://www.serif.com/" style="fill-rule:evenodd;clip-rule:evenodd;stroke-linejoin:round;stroke-miterlimit:2;"><path d="M93.333,165.208l-45.833,-26.875c-1.913,-1.17 -3.398,-2.713 -4.456,-4.627c-1.057,-1.915 -1.586,-3.984 -1.586,-6.206l0,-53.542c0,-2.222 0.529,-4.29 1.586,-6.205c1.058,-1.915 2.543,-3.458 4.456,-4.628l46.042,-27.292c1.944,-1.111 4.097,-1.666 6.458,-1.666c2.361,-0 4.514,0.555 6.458,1.666l46.042,27.292c1.913,1.17 3.398,2.713 4.456,4.628c1.057,1.915 1.586,3.983 1.586,6.205l-0,53.542c-0,2.222 -0.547,4.291 -1.641,6.206c-1.094,1.914 -2.63,3.457 -4.609,4.627l-46.459,26.875c-1.99,1.111 -4.084,1.667 -6.284,1.667c-2.199,0 -4.271,-0.556 -6.216,-1.667Zm0.417,-14.375l0,-46.666l-39.583,-22.709l-0,45.625l39.583,23.75Zm12.5,0l39.792,-23.75l-0,-45.625l-39.792,22.709l0,46.666Zm-89.583,-94.791l-0,-26.875c-0,-3.438 1.224,-6.381 3.672,-8.828c2.447,-2.448 5.39,-3.672 8.828,-3.672l26.875,-0l-0,12.5l-26.875,-0l-0,26.875l-12.5,-0Zm39.375,127.291l-26.875,0c-3.438,0 -6.381,-1.224 -8.828,-3.672c-2.448,-2.447 -3.672,-5.39 -3.672,-8.828l-0,-26.875l12.5,0l-0,26.875l26.875,0l-0,12.5Zm87.916,0l0,-12.5l26.875,0l0,-26.875l12.5,0l0,26.875c0,3.438 -1.224,6.381 -3.672,8.828c-2.447,2.448 -5.39,3.672 -8.828,3.672l-26.875,0Zm26.875,-127.291l0,-26.875l-26.875,-0l0,-12.5l26.875,-0c3.438,-0 6.381,1.224 8.828,3.672c2.448,2.447 3.672,5.39 3.672,8.828l0,26.875l-12.5,-0Zm-70.833,36.875l39.583,-22.917l-39.583,-22.708l-39.583,22.708l39.583,22.917Z" style="fill:#fff;fill-rule:nonzero;stroke:#fff;stroke-width:4.17px;"/></svg>