<?xml version="1.0" encoding="UTF-8" standalone="no"?><!DOCTYPE svg PUBLIC "-//W3C//DTD SVG 1.1//EN" "http://www.w3.org/Graphics/SVG/1.1/DTD/svg11.dtd"><svg width="100%" height="100%" viewBox="0 0 150 150" version="1.1" xmlns="http://www.w3.org/2000/svg" xmlns:xlink="http://www.w3.org/1999/xlink" xml:space="preserve" xmlns:serif="http://www.serif.com/" style="fill-rule:evenodd;clip-rule:evenodd;stroke-linejoin:round;stroke-miterlimit:2;"><path d="M150,3c0,-1.656 -1.344,-3 -3,-3l-144,0c-1.656,0 -3,1.344 -3,3l0,144c0,1.656 1.344,3 3,3l144,0c1.656,0 3,-1.344 3,-3l0,-144Z" style="fill:#fff;"/><path d="M37.009,84.496c-0.009,-0 -0.017,-0 -0.025,-0c-5.213,-0 -9.503,-4.29 -9.503,-9.504c-0,-5.214 4.29,-9.504 9.503,-9.504c1.79,0 3.543,0.506 5.058,1.458l-5.033,8.054l9.476,-5.465c-1.087,-1.697 -2.559,-3.114 -4.297,-4.134c-2.269,-1.362 -5.429,-2.202 -8.922,-2.202c-4.989,0 -9.361,1.81 -11.8,4.523c-1.832,1.982 -2.86,4.579 -2.879,7.278c0.019,2.699 1.047,5.296 2.879,7.278c2.447,2.701 6.751,4.523 11.654,4.523c4.902,-0 9.226,-1.822 11.658,-4.523c0.135,-0.148 0.267,-0.299 0.396,-0.455l-0.372,-1.386c-1.778,2.542 -4.691,4.06 -7.793,4.059Z" style="fill:#e11b22;fill-rule:nonzero;"/><path d="M68.423,86.226l-3.96,-14.837c-0.651,-2.454 -2.889,-4.176 -5.428,-4.176c-0.658,0 -1.312,0.116 -1.93,0.342l-8.561,3.129l8.807,-0l1.504,5.619c-1.512,-1.303 -3.444,-2.019 -5.441,-2.016c-4.134,0 -7.504,2.772 -7.504,6.182c0,3.409 3.351,6.189 7.485,6.189c2.859,0.002 5.551,-1.373 7.227,-3.691l0.875,3.259l6.926,0Zm-12.134,-2.304c-1.894,-0 -3.453,-1.559 -3.453,-3.453c0,-1.895 1.559,-3.453 3.453,-3.453c1.895,-0 3.453,1.558 3.453,3.453c0,1.894 -1.558,3.453 -3.453,3.453Z" style="fill:#e11b22;fill-rule:nonzero;"/><path d="M84.642,67.231c-0.505,-0.001 -1.004,0.11 -1.461,0.324l-5.496,2.562c-0.28,-1.654 -1.727,-2.877 -3.405,-2.877c-0.498,-0 -0.99,0.107 -1.442,0.315l-6.732,3.129l4.72,-0l0,15.542l6.906,0l0,-13.816c0,-0.947 0.78,-1.726 1.727,-1.726c0.947,-0 1.726,0.779 1.726,1.726l0,13.816l6.907,0l-0,-15.542c-0,-1.895 -1.559,-3.453 -3.454,-3.453l0.004,-0Z" style="fill:#e11b22;fill-rule:nonzero;"/><path d="M127.96,67.231c-0.505,-0.001 -1.004,0.11 -1.461,0.324l-5.497,2.562c-0.276,-1.658 -1.725,-2.886 -3.406,-2.886c-0.504,0 -1.003,0.111 -1.46,0.324l-6.732,3.133l4.72,-0l0,15.538l6.906,0l0,-13.816c0,-0.947 0.78,-1.726 1.727,-1.726c0.947,-0 1.726,0.779 1.726,1.726l0,13.816l6.906,0l0,-15.542c0,-1.895 -1.558,-3.453 -3.453,-3.453l0.024,-0Z" style="fill:#e11b22;fill-rule:nonzero;"/><path d="M110.544,77.016c0,5.367 -4.417,9.785 -9.785,9.785c-5.368,-0 -9.785,-4.418 -9.785,-9.785c0,-5.368 4.417,-9.785 9.785,-9.785c5.368,-0 9.785,4.417 9.785,9.785Zm-9.377,-6.815c-0.252,-0.942 -1.112,-1.602 -2.087,-1.602c-1.185,-0 -2.16,0.975 -2.16,2.16c0,0.188 0.025,0.376 0.073,0.558l3.35,12.51c0.252,0.942 1.112,1.602 2.087,1.602c1.185,-0 2.161,-0.976 2.161,-2.161c-0,-0.188 -0.025,-0.376 -0.074,-0.558l-3.354,-12.509l0.004,-0Z" style="fill:#e11b22;fill-rule:nonzero;"/></svg>
