<?xml version="1.0" encoding="UTF-8" standalone="no"?><!DOCTYPE svg PUBLIC "-//W3C//DTD SVG 1.1//EN" "http://www.w3.org/Graphics/SVG/1.1/DTD/svg11.dtd"><svg width="100%" height="100%" viewBox="0 0 625 625" version="1.1" xmlns="http://www.w3.org/2000/svg" xmlns:xlink="http://www.w3.org/1999/xlink" xml:space="preserve" xmlns:serif="http://www.serif.com/" style="fill-rule:evenodd;clip-rule:evenodd;stroke-linejoin:round;stroke-miterlimit:2;"><path d="M625,12.5c0,-6.9 -5.6,-12.5 -12.5,-12.5l-600,0c-6.9,0 -12.5,5.6 -12.5,12.5l0,600c0,6.9 5.6,12.5 12.5,12.5l600,0c6.9,0 12.5,-5.6 12.5,-12.5l0,-600Z" style="fill:#fff;"/><path d="M256.4,285.859l0,-2.043l-0.68,-0.681l-35.408,0l-0.683,0.681l-0,2.043l0.683,0.68l14.979,0l0.68,0.68l-0,42.899l0.683,0.681l2.724,-0l0.681,-0.681l-0,-42.899l0.679,-0.68l14.982,0l0.68,-0.68Zm18.348,25.874l-20.427,0l-0.68,-0.681c0,-4.767 2.724,-11.575 10.892,-11.575c8.174,0 10.898,6.808 10.898,11.575l-0.683,0.681Zm4.087,3.407l0.683,-0.683l0,-2.041c0,-9.535 -5.45,-16.345 -14.985,-16.345c-9.528,-0 -14.979,6.81 -14.979,16.345l0,1.36c0,9.532 4.767,17.703 15.662,17.703c9.532,-0 12.935,-6.128 13.619,-10.215l-0.684,-0.68l-2.72,0l-0.683,0.68c-1.361,4.087 -4.085,6.811 -9.532,6.811c-8.851,-0 -11.575,-8.171 -11.575,-12.255l0.68,-0.68l24.514,-0Zm7.491,-1.364c-0,-9.534 4.764,-14.299 11.575,-14.299c6.808,0 9.531,4.085 10.212,8.169l0.679,0.683l2.727,-0l0.68,-0.683c-0.68,-6.808 -6.13,-11.575 -14.298,-11.575c-8.851,-0 -15.659,5.45 -15.659,17.705c-0,12.256 6.808,17.703 15.659,17.703c8.168,-0 13.618,-4.767 14.298,-11.575l-0.68,-0.68l-2.727,-0l-0.679,0.68c-0.681,4.084 -3.404,8.171 -10.212,8.171c-6.811,-0 -11.575,-4.767 -11.575,-14.299m58.555,16.342l-0,-20.429c-0,-8.851 -4.768,-13.618 -12.255,-13.618c-4.768,-0 -8.852,2.046 -10.895,5.45l-0.681,0l0,-17.705l-0.679,-0.681l-2.724,0l-0.683,0.681l-0,46.302l0.683,0.681l2.724,-0l0.679,-0.681l0,-18.385c0,-7.491 3.408,-12.256 10.895,-12.256c5.448,0 8.852,3.404 8.852,10.212l-0,20.429l0.68,0.681l2.727,-0l0.677,-0.681Zm34.728,0l-0,-20.429c-0,-8.851 -4.764,-13.618 -12.255,-13.618c-4.768,-0 -8.854,2.046 -10.895,5.45l-0.683,0l-0.677,-4.09l-0.684,-0.68l-2.043,-0l-0.681,0.68l0,32.687l0.681,0.681l2.727,-0l0.677,-0.681l-0,-18.385c-0,-7.491 3.406,-12.256 10.895,-12.256c5.447,0 8.851,3.404 8.851,10.212l0,20.429l0.683,0.681l2.724,-0l0.68,-0.681Zm19.746,1.361c8.852,-0 15.662,-6.128 15.662,-17.703c0,-11.575 -6.81,-17.705 -15.662,-17.705c-8.852,-0 -15.662,6.13 -15.662,17.705c0,11.575 6.81,17.703 15.662,17.703m0,-32.002c6.808,0 11.575,5.448 11.575,14.299c0,8.851 -4.767,14.299 -11.575,14.299c-6.811,-0 -11.578,-5.448 -11.578,-14.299c-0,-8.851 4.767,-14.299 11.578,-14.299m24.51,30.641l0,-46.302l-0.68,-0.681l-2.723,0l-0.683,0.681l-0,46.302l0.683,0.681l2.723,-0l0.68,-0.681Zm20.43,1.361c8.851,-0 15.659,-6.128 15.659,-17.703c-0,-11.575 -6.808,-17.705 -15.659,-17.705c-8.855,-0 -15.662,6.13 -15.662,17.705c-0,11.575 6.807,17.703 15.662,17.703m0,-32.002c6.808,0 11.572,5.448 11.572,14.299c-0,8.851 -4.764,14.299 -11.572,14.299c-6.811,-0 -11.578,-5.448 -11.578,-14.299c-0,-8.851 4.767,-14.299 11.578,-14.299m44.256,26.555c-0,8.851 -2.043,15.661 -10.214,15.661c-6.128,0 -8.171,-2.723 -8.852,-6.127l-0.68,-0.683l-2.724,-0l-0.68,0.683c0.68,5.447 4.765,9.532 12.936,9.532c8.854,-0 14.299,-5.448 14.299,-19.066l-0,-28.601l-0.681,-0.68l-2.043,-0l-0.68,0.68l-0.681,4.09l-0.683,0c-1.36,-2.724 -4.764,-5.45 -10.895,-5.45c-9.531,-0 -14.299,7.491 -14.299,17.705c0,10.212 4.768,17.703 14.299,17.703c6.131,-0 9.535,-2.721 10.895,-5.447l0.683,-0Zm-10.891,2.043c-6.811,-0 -10.898,-4.767 -10.898,-14.299c-0,-9.534 4.087,-14.299 10.898,-14.299c6.804,0 10.891,4.765 10.891,14.299c-0,9.532 -4.087,14.299 -10.891,14.299m25.87,-37.452l0,-4.084l-0.68,-0.68l-2.724,-0l-0.68,0.68l0,4.084l0.68,0.683l2.724,0l0.68,-0.683Zm0,39.495l0,-32.687l-0.68,-0.68l-2.724,-0l-0.68,0.68l0,32.687l0.68,0.681l2.724,-0l0.68,-0.681Zm29.961,-18.385l-20.427,0l-0.683,-0.681c0,-4.767 2.724,-11.575 10.895,-11.575c8.171,0 10.895,6.808 10.895,11.575l-0.68,0.681Zm4.087,3.407l0.677,-0.683l0,-2.041c0,-9.535 -5.447,-16.345 -14.979,-16.345c-9.531,-0 -14.979,6.81 -14.979,16.345l0,1.36c0,9.532 4.767,17.703 15.663,17.703c9.531,-0 12.935,-6.128 13.618,-10.215l-0.683,-0.68l-2.724,0l-0.68,0.68c-1.363,4.087 -4.087,6.811 -9.531,6.811c-8.855,-0 -11.579,-8.171 -11.579,-12.255l0.683,-0.68l24.514,-0Zm29.278,6.807c-0,-6.127 -3.407,-8.851 -10.218,-10.214c-6.808,-1.361 -10.892,-2.044 -10.892,-6.808c-0,-3.404 2.724,-5.448 7.491,-5.448c6.128,0 8.171,2.724 8.171,6.128l0.681,0.68l2.723,0l0.683,-0.68c0,-6.808 -5.45,-9.534 -12.258,-9.534c-7.491,-0 -11.575,4.086 -11.575,8.854c-0,5.447 4.084,8.171 10.892,9.532c6.811,1.363 10.214,2.043 10.214,7.49c0,3.404 -2.04,6.128 -8.851,6.128c-6.127,-0 -8.851,-3.407 -8.851,-7.491l-0.68,-0.68l-2.724,-0l-0.68,0.68c-0,6.128 4.764,10.895 12.935,10.895c8.851,-0 12.939,-4.084 12.939,-9.532" style="fill:#007bc2;fill-rule:nonzero;"/><path d="M68.97,321.326l-0,-28.718l8.495,-0c7.183,-0 13.006,6.429 13.006,14.359c0,7.93 -5.823,14.359 -13.006,14.359l-8.495,0Zm8.495,9.473c11.09,-0 20.411,-7.576 23.071,-17.835l26.965,21.067l26.947,-21.054l0,17.822l30.749,-0l-0,-9.473l-19.923,0l0,-38.191l-10.826,0l0,17.822l-25.848,20.195l-5.781,-4.516l12.375,-9.669l13.474,-10.527l-7.693,-6.01l-25.849,20.195l-5.782,-4.517l25.85,-20.195l-7.693,-6.011l-26.965,21.068c-2.66,-10.259 -11.981,-17.835 -23.071,-17.835l-19.321,0l0,47.664l19.321,-0Zm142.164,-9.473l-0,9.473l-30.749,-0l0,-47.664l10.826,0l0,38.191l19.923,0Z" style="fill:#007bc2;fill-rule:nonzero;"/></svg>