<?xml version="1.0" encoding="UTF-8" standalone="no"?><!DOCTYPE svg PUBLIC "-//W3C//DTD SVG 1.1//EN" "http://www.w3.org/Graphics/SVG/1.1/DTD/svg11.dtd"><svg width="100%" height="100%" viewBox="0 0 625 625" version="1.1" xmlns="http://www.w3.org/2000/svg" xmlns:xlink="http://www.w3.org/1999/xlink" xml:space="preserve" xmlns:serif="http://www.serif.com/" style="fill-rule:evenodd;clip-rule:evenodd;stroke-linejoin:round;stroke-miterlimit:2;"><path d="M625,12.5c0,-6.899 -5.601,-12.5 -12.5,-12.5l-600,0c-6.899,0 -12.5,5.601 -12.5,12.5l0,600c0,6.899 5.601,12.5 12.5,12.5l600,0c6.899,0 12.5,-5.601 12.5,-12.5l0,-600Z" style="fill:#fff;"/><rect id="Artboard1" x="78.351" y="248.69" width="470.071" height="127.785" style="fill:none;"/><g id="レイヤー-1" serif:id="レイヤー 1"><path d="M436.459,248.767l0.006,61.225c0,3.984 1.958,6.023 5.973,6.229c0.042,0.003 20.171,0.003 20.171,0.003l-0,6.867c-0,0.771 -0.414,1.309 -1.274,1.309l-32.659,-0c-10.085,-0 -11.586,-5.553 -11.586,-10.603l-0,-60.867c-0,-2.876 1.099,-4.233 4.493,-4.161l14.876,-0.002" style="fill:#231916;fill-rule:nonzero;"/><path d="M398.82,248.767l0.01,71.648c0,3.186 -1.359,3.985 -4.066,3.985l-15.323,-0l-0,-71.678c-0,-2.366 0.898,-3.953 4.337,-3.953l15.042,-0.002" style="fill:#231916;fill-rule:nonzero;"/><path d="M78.388,259.193c0,-5.766 0.007,-10.433 9.481,-10.433l41.637,0l0,7.275c0,0.519 -0.246,0.989 -0.971,0.989c-0,-0.005 -24.954,-0.012 -24.954,-0.012c-3.349,0 -5.038,1.609 -5.038,4.992c0,0.05 -0.002,19.205 -0.002,19.205l29.363,0l0.004,7.63c-0,0.672 -0.431,1.033 -1.089,1.033c-0.019,0 -28.278,0.001 -28.278,0.001l-0,30.467c-0.063,2.944 -1.525,4.111 -4.749,4.053l-15.404,-0l0,-65.2" style="fill:#231916;fill-rule:nonzero;"/><path d="M159.579,248.76l0,57.649c0,4.95 0.698,8.419 4.171,10.427c4.656,2.693 12.542,2.733 17.288,0.076c3.246,-1.813 4.484,-4.726 4.484,-10.482l-0,-53.828c-0,-2.425 0.922,-3.843 4.309,-3.842l15.062,0l0.008,55.947c-0,12.996 -8.184,18.325 -15.414,20.3c-9.63,2.631 -24.252,2.669 -33.327,-0.059c-10.863,-3.268 -15.927,-9.694 -15.94,-20.24l-0.005,-52.063c-0,-2.517 0.896,-3.885 3.785,-3.885l15.579,0" style="fill:#231916;fill-rule:nonzero;"/><path d="M526.057,248.769c-3.82,0 -6.002,1.781 -6.866,5.197l-12.34,52.152l-0.339,-0.006l-12.744,-57.343l-17.425,0c-3.367,0 -4.418,1.73 -4.418,4.4l0,71.231l7.355,-0c1.184,-0 1.676,-0.592 1.676,-1.799l0,-59.717l1.168,-0l15.753,61.516l10.318,-0c3.888,-0 5.332,-1.597 6.293,-5.44l14.146,-56.076l1.149,-0l-0.007,61.516l13.766,-0.019c3.379,-0 4.918,-1.297 4.918,-4.621l0,-70.995l-22.403,0.004" style="fill:#231916;fill-rule:nonzero;"/><path d="M296.976,289.867l-19.378,-0l0,34.532l15.321,0c2.705,0 4.066,-0.792 4.066,-3.984c-0,0 -0.009,-14.774 -0.009,-30.548" style="fill:#231916;fill-rule:nonzero;"/><path d="M295.847,275.112c0.679,-0.552 1.076,-0.966 1.129,-2.153l-0,-24.192l-15.042,0.002c-3.386,-0 -4.336,1.661 -4.336,4.014l-0,36.619l18.249,-14.29" style="fill:#e6002d;fill-rule:nonzero;"/><path d="M229.428,318.42c8.411,-1.195 11.209,-6.191 11.209,-13.56l0,-51.991c0,-3.107 1.688,-4.109 3.856,-4.109l15.522,0l-0,49.151c-0,12.088 -2.542,18.194 -9.706,23.344c-3.729,2.677 -10.238,5.729 -24.361,5.729c-8.082,0 -11.678,-0.458 -12.162,-0.571c-0.682,-0.161 -0.963,-0.574 -0.963,-1.17l-0,-6.345c3.314,0.093 10.921,0.327 16.605,-0.478" style="fill:#231916;fill-rule:nonzero;"/><path d="M326.336,248.76c-9.468,0 -9.474,4.667 -9.474,10.433l-0,19.487c-0,0.403 -0.173,0.567 -0.352,0.744l-13.256,10.438l13.608,0l-0,34.531l15.399,-0c3.224,0.058 4.685,-1.109 4.747,-4.053l-0,-30.467c-0,0 28.258,-0.001 28.279,-0.001c0.658,0 1.089,-0.361 1.089,-1.033l-0.005,-7.63l-29.363,0c-0,0 0.001,-19.155 0.001,-19.205c0,-3.383 1.688,-4.992 5.039,-4.992c0,0 24.957,0.007 24.957,0.012c0.723,-0 0.973,-0.47 0.973,-0.989l-0,-7.275l-41.642,0" style="fill:#231916;fill-rule:nonzero;"/><path d="M102.548,347.083l9.073,20.021l8.4,-20.021l4.337,0l-11.887,28.316c-0.28,0.667 -0.937,1.104 -1.66,1.104l-1.964,0l-12.762,-28.329c-0.23,-0.511 0.143,-1.091 0.705,-1.091l5.758,0" style="fill:#231916;fill-rule:nonzero;"/><path d="M153.424,374.86c-0,0.661 -0.536,1.195 -1.195,1.195l-5.028,0l0,-30.937c0,-0.661 0.537,-1.196 1.196,-1.196l5.027,-0l-0,30.938" style="fill:#231916;fill-rule:nonzero;"/><path d="M326.378,348.279c-0,-0.66 0.534,-1.196 1.197,-1.196l5.525,0l0,27.777c0,0.66 -0.535,1.196 -1.195,1.196l-5.527,-0l-0,-27.777" style="fill:#231916;fill-rule:nonzero;"/><path d="M416.193,353.819l6.049,13.694l6.166,-13.694l4.296,0l-9.72,21.635c-0.299,0.662 -0.962,1.091 -1.688,1.091l-1.674,-0l-9.534,-21.633c-0.23,-0.514 0.15,-1.093 0.714,-1.093l5.391,0" style="fill:#231916;fill-rule:nonzero;"/><path d="M474.537,355.418c-0,-0.662 0.535,-1.197 1.198,-1.197l5.065,0l-0,20.639c-0,0.66 -0.535,1.196 -1.197,1.196l-5.066,0l-0,-20.638" style="fill:#231916;fill-rule:nonzero;"/><path d="M246.284,353.723c-1.927,-0 -3.939,1.081 -5.481,2.34l0,-1.839l-5.064,0c-0.66,0 -1.197,0.537 -1.197,1.199l0,20.633l5.063,0c0.662,0 1.198,-0.536 1.198,-1.196l0,-14.78c3.655,-3.61 7.351,-1.807 9.24,-0.396l-0,-5.015c-0.879,-0.617 -1.649,-0.946 -3.759,-0.946" style="fill:#231916;fill-rule:nonzero;"/><path d="M135.513,371.089c-0.001,-2.177 -0.005,-5.026 -0.007,-7.147c-4.328,1.394 -6.134,4.068 -6.134,5.989c-0,1.364 0.811,2.948 2.393,2.948c2.096,0 3.118,-1.069 3.748,-1.79m-2.21,-17.372c6.954,0 8.515,3.243 8.515,5.96l0,15.183c0,0.661 -0.538,1.196 -1.197,1.196l-5.104,-0l0,-1.888c-1.963,1.929 -4.557,2.317 -5.97,2.317c-1.45,0 -6.509,-0.571 -6.509,-5.981c-0,-5.872 7.327,-8.044 12.465,-9.411l0,-0.004c0,-1.495 -0.087,-2.022 -0.394,-3.121c-0.307,-1.1 -1.759,-1.407 -2.367,-1.407c-2.559,0 -5.64,0.859 -8.156,2l-0,-3.04c2.384,-0.853 5.772,-1.804 8.717,-1.804" style="fill:#231916;fill-rule:nonzero;"/><path d="M229.022,347.985c1.513,-0.112 2.707,0.134 4.297,0.581l0,-2.806c-1.705,-0.426 -3.17,-0.622 -4.856,-0.622c-2.644,-0 -8.514,1.052 -8.514,6.228l-0,2.859l-4.075,-0l-0,2.666l4.075,0l-0,19.164l5.063,0c0.661,0 1.197,-0.535 1.197,-1.195l0,-17.969l5.154,0l0,-2.666l-5.154,-0l0,-1.447c0,-1.495 -0.04,-2.069 0.398,-3.124c0.449,-1.088 1.81,-1.625 2.415,-1.669" style="fill:#231916;fill-rule:nonzero;"/><path d="M194.798,362.441c-0.092,-4.646 -1.825,-5.929 -3.738,-5.917c-2.923,0.021 -3.327,4.01 -3.353,5.917l7.091,0Zm-2.661,14.104c-5.854,0 -10.632,-5.044 -10.632,-10.703c-0,-7.565 4.841,-12.067 10.864,-11.995c6.527,0.078 9.873,4.672 9.633,10.854l-14.333,0c-0,2.965 0.706,7.532 5.549,7.532c4.099,-0.153 5.585,-3.599 5.959,-4.548l3.218,-0c-0.373,2.346 -1.28,3.866 -2.669,5.302c-1.554,1.606 -4.145,3.472 -7.589,3.558" style="fill:#231916;fill-rule:nonzero;"/><path d="M261.784,356.403c-2.115,0.347 -4.769,3.598 -3.41,11.068c0.891,4.898 3.196,6.327 5.047,6.327c1.851,-0 3.948,-2.651 3.948,-7.201c-0,-9.187 -3.928,-10.466 -5.585,-10.194m12.369,8.321c0,6.21 -4.778,11.737 -11.464,11.737c-6.497,0 -11.424,-4.895 -11.424,-11.105c0,-6.211 4.398,-11.576 11.405,-11.576c6.497,-0 11.483,4.733 11.483,10.944" style="fill:#231916;fill-rule:nonzero;"/><path d="M396.389,356.403c-2.116,0.347 -4.77,3.598 -3.411,11.068c0.891,4.898 3.196,6.327 5.047,6.327c1.851,-0 3.948,-2.651 3.948,-7.201c-0,-9.187 -3.928,-10.466 -5.584,-10.194m12.368,8.321c0,6.21 -4.778,11.737 -11.464,11.737c-6.497,0 -11.424,-4.895 -11.424,-11.105c0,-6.211 4.398,-11.576 11.405,-11.576c6.498,-0 11.483,4.733 11.483,10.944" style="fill:#231916;fill-rule:nonzero;"/><path d="M495.597,356.403c-2.116,0.347 -4.77,3.598 -3.411,11.068c0.891,4.898 3.196,6.327 5.048,6.327c1.85,-0 3.947,-2.651 3.947,-7.201c0,-9.187 -3.928,-10.466 -5.584,-10.194m12.368,8.321c0,6.21 -4.778,11.737 -11.464,11.737c-6.497,0 -11.424,-4.895 -11.424,-11.105c0,-6.211 4.398,-11.576 11.405,-11.576c6.498,-0 11.483,4.733 11.483,10.944" style="fill:#231916;fill-rule:nonzero;"/><path d="M481.13,348.758c-0,1.895 -1.534,3.432 -3.427,3.432c-1.893,-0 -3.427,-1.537 -3.427,-3.432c-0,-1.896 1.534,-3.432 3.427,-3.432c1.893,-0 3.427,1.536 3.427,3.432" style="fill:#231916;fill-rule:nonzero;"/><path d="M164.993,354.225l-0,15.381c-0,1.419 1.113,3.074 3.025,3.074c1.079,0 2.483,-1.301 3.353,-2.706l-0,-14.552c-0,-0.661 0.536,-1.197 1.197,-1.197l5.083,-0l-0,20.635c-0,0.661 -0.535,1.196 -1.198,1.196l-5.082,-0l-0,-2.035c-0.823,0.745 -1.699,1.339 -2.63,1.78c-0.931,0.443 -1.839,0.66 -2.728,0.66c-4.375,0 -7.282,-3.336 -7.282,-6.855l-0,-14.184c-0,-0.661 0.537,-1.197 1.198,-1.197l5.064,-0" style="fill:#231916;fill-rule:nonzero;"/><path d="M518.119,360.065c0.207,-0.203 2.383,-2.328 4.372,-2.42c1.263,0 2.08,1.466 2.08,3.457l-0,14.954l5.066,-0c0.661,-0 1.196,-0.535 1.196,-1.196l-0,-14.429c-0,-4.093 -3.4,-6.651 -6.298,-6.651c-3.218,-0 -5.315,1.34 -6.416,2.155l0,-1.71l-5.105,-0c-0.659,-0 -1.195,0.536 -1.195,1.197l-0,20.634l5.103,-0c0.661,-0 1.197,-0.535 1.197,-1.196l0,-14.795Z" style="fill:#231916;fill-rule:nonzero;"/><path d="M369.303,360.065c0.207,-0.203 2.383,-2.328 4.371,-2.42c1.264,0 2.081,1.466 2.081,3.457l-0,14.954l5.066,-0c0.661,-0 1.196,-0.535 1.196,-1.196l-0,-14.429c-0,-4.093 -3.4,-6.651 -6.299,-6.651c-3.217,-0 -5.315,1.34 -6.415,2.155l0,-1.71l-5.105,-0c-0.659,-0 -1.196,0.536 -1.196,1.197l0,20.634l5.104,-0c0.661,-0 1.197,-0.535 1.197,-1.196l0,-14.795Z" style="fill:#231916;fill-rule:nonzero;"/><path d="M345.471,360.065c0.207,-0.203 2.383,-2.328 4.372,-2.42c1.263,0 2.08,1.466 2.08,3.457l0,14.954l5.066,-0c0.661,-0 1.196,-0.535 1.196,-1.196l-0,-14.429c-0,-4.093 -3.4,-6.651 -6.299,-6.651c-3.217,-0 -5.314,1.34 -6.415,2.155l0,-1.71l-5.105,-0c-0.659,-0 -1.196,0.536 -1.196,1.197l0,20.634l5.104,-0c0.661,-0 1.197,-0.535 1.197,-1.196l0,-14.795Z" style="fill:#231916;fill-rule:nonzero;"/><path d="M303.495,353.78c-3.215,-0 -5.574,1.364 -7.393,2.742c-1.322,-2.024 -3.738,-2.742 -5.359,-2.742c-3.218,-0 -5.315,1.34 -6.416,2.155l0,-1.71l-5.105,-0c-0.659,-0 -1.195,0.536 -1.195,1.197l-0,20.634l5.102,-0c0.661,-0 1.198,-0.535 1.198,-1.196l0,-14.795c0.207,-0.203 2.383,-2.328 4.372,-2.42c1.263,0 2.08,1.466 2.08,3.457l-0,14.954l5.103,-0c0.66,-0 1.198,-0.535 1.198,-1.196l-0,-14.795c0.206,-0.203 2.383,-2.328 4.371,-2.42c1.264,0 2.08,1.466 2.08,3.457l0,14.954l5.066,-0c0.661,-0 1.196,-0.535 1.196,-1.196l0,-14.429c0,-4.093 -3.399,-6.651 -6.298,-6.651" style="fill:#231916;fill-rule:nonzero;"/><path d="M435.514,355.52l-0,3.041c2.515,-1.141 5.596,-1.999 8.156,-1.999c0.607,-0 2.059,0.306 2.366,1.405c0.308,1.1 0.395,1.627 0.395,3.123l-0,0.003c-5.138,1.367 -12.465,3.539 -12.465,9.41c-0,5.411 5.057,5.982 6.508,5.982c1.413,-0 4.007,-0.388 5.971,-2.317l0,1.888l5.104,0c0.659,0 1.196,-0.536 1.196,-1.196l0,-15.182c0,-2.718 -1.561,-5.961 -8.515,-5.961c-2.944,-0 -6.332,0.952 -8.716,1.803m7.178,17.36c-1.582,-0 -2.393,-1.586 -2.393,-2.95c-0,-1.92 1.807,-4.594 6.135,-5.988c0.002,2.12 0.005,4.969 0.007,7.147c-0.63,0.721 -1.653,1.791 -3.749,1.791" style="fill:#231916;fill-rule:nonzero;"/><path d="M458.924,354.175l-0,-5.711c-0,-0.662 0.535,-1.197 1.195,-1.197l5.163,-0l0,6.908l5.105,0l-0,2.716l-5.105,-0l0,14.1c0,0.435 0.106,0.814 0.318,1.138c0.211,0.328 0.7,0.49 1.328,0.49c1.253,0 3.201,-1.026 3.53,-1.587l0,3.134c-1.319,1.054 -3.497,2.379 -6.235,2.379c-4.029,0 -5.222,-2.872 -5.222,-5.371l-0,-14.283l-3.312,-0l0,-2.716l3.235,0" style="fill:#231916;fill-rule:nonzero;"/></g><g id="レイヤー-11" serif:id="レイヤー 1"></g></svg>