<?xml version="1.0" encoding="UTF-8" standalone="no"?><!DOCTYPE svg PUBLIC "-//W3C//DTD SVG 1.1//EN" "http://www.w3.org/Graphics/SVG/1.1/DTD/svg11.dtd"><svg width="100%" height="100%" viewBox="0 0 150 150" version="1.1" xmlns="http://www.w3.org/2000/svg" xmlns:xlink="http://www.w3.org/1999/xlink" xml:space="preserve" xmlns:serif="http://www.serif.com/" style="fill-rule:evenodd;clip-rule:evenodd;stroke-linejoin:round;stroke-miterlimit:2;"><path d="M150,3c0,-1.656 -1.344,-3 -3,-3l-144,0c-1.656,0 -3,1.344 -3,3l0,144c0,1.656 1.344,3 3,3l144,0c1.656,0 3,-1.344 3,-3l0,-144Z" style="fill:#fff;"/><clipPath id="_clip1"><rect id="hp.svg" x="42.61" y="42.609" width="64.78" height="64.783"/></clipPath><g clip-path="url(#_clip1)"><g id="Warstwa_x0020_1"><path d="M74.997,107.391c-0.319,0 -0.64,-0.006 -0.959,-0.015l6.62,-18.193l9.106,-0c1.602,-0 3.358,-1.229 3.904,-2.731l7.18,-19.727c1.178,-3.231 -0.671,-5.87 -4.112,-5.87l-12.637,-0l-10.604,29.139l-0.003,-0l-6.013,16.516c-14.26,-3.388 -24.869,-16.212 -24.869,-31.509c-0,-14.858 10.006,-27.381 23.647,-31.196l-6.205,17.05l-0.002,0l-10.312,28.328l6.865,0l8.771,-24.071l5.159,0l-8.77,24.071l6.86,0.003l8.173,-22.46c1.175,-3.231 -0.674,-5.871 -4.108,-5.871l-5.77,0l6.624,-18.209c0.484,-0.025 0.969,-0.037 1.454,-0.037c17.894,-0 32.394,14.502 32.394,32.391c0.001,17.886 -14.499,32.391 -32.393,32.391Zm19.6,-42.298l-5.155,0l-7.223,19.82l5.156,0l7.222,-19.82Z" style="fill:#1c8dca;fill-rule:nonzero;"/></g></g></svg>