<?xml version="1.0" encoding="UTF-8" standalone="no"?><!DOCTYPE svg PUBLIC "-//W3C//DTD SVG 1.1//EN" "http://www.w3.org/Graphics/SVG/1.1/DTD/svg11.dtd"><svg width="100%" height="100%" viewBox="0 0 150 150" version="1.1" xmlns="http://www.w3.org/2000/svg" xmlns:xlink="http://www.w3.org/1999/xlink" xml:space="preserve" xmlns:serif="http://www.serif.com/" style="fill-rule:evenodd;clip-rule:evenodd;stroke-linejoin:round;stroke-miterlimit:2;"><path d="M150,3c0,-1.656 -1.344,-3 -3,-3l-144,0c-1.656,0 -3,1.344 -3,3l0,144c0,1.656 1.344,3 3,3l144,0c1.656,0 3,-1.344 3,-3l0,-144Z" style="fill:#fff;"/><path d="M47.623,65.661c3.214,0.083 18.749,0.722 26.632,0.688c7.882,0.034 23.403,-0.605 26.618,-0.688c0.224,-0.006 0.333,0.102 0.348,0.272c0.01,-0.269 0.015,-0.54 0.015,-0.811c0,-0.272 -0.005,-0.541 -0.015,-0.811c-0.015,0.171 -0.124,0.279 -0.348,0.273c-3.215,-0.084 -18.736,-0.723 -26.618,-0.689c-7.883,-0.034 -23.418,0.605 -26.632,0.689c-0.22,0.006 -0.328,-0.097 -0.347,-0.258c-0.01,0.264 -0.016,0.529 -0.016,0.796c-0,0.267 0.006,0.533 0.016,0.797c0.019,-0.162 0.127,-0.264 0.347,-0.258Z" style="fill:#fff;fill-rule:nonzero;"/><path d="M47.439,62.414c0.063,-0.239 0.246,-0.363 0.49,-0.355c0.242,0.006 18.266,1.036 26.326,1.103c8.058,-0.067 26.07,-1.097 26.311,-1.103c0.25,-0.008 0.437,0.122 0.495,0.374c-0.076,-0.573 -0.176,-1.138 -0.298,-1.696c0.006,0.22 -0.174,0.367 -0.388,0.363c-3.346,-0.061 -20.745,-0.443 -26.118,-0.443l-0.001,-0c-5.373,-0 -22.784,0.382 -26.132,0.443c-0.217,0.004 -0.401,-0.15 -0.386,-0.377c-0.123,0.557 -0.223,1.121 -0.299,1.691Z" style="fill:#fff;fill-rule:nonzero;"/><path d="M48.232,58.882c0.076,-0.173 0.189,-0.253 0.382,-0.246c3.336,0.183 25.642,1.432 25.642,1.432l0.001,-0c0,-0 22.293,-1.249 25.628,-1.432c0.187,-0.006 0.297,0.066 0.372,0.225c-0.165,-0.514 -0.348,-1.021 -0.552,-1.521c0.096,0.268 -0.048,0.445 -0.318,0.447c-0.562,0.003 -12.14,0.142 -12.14,0.142l-25.998,0c0,0 -11.578,-0.139 -12.14,-0.142c-0.267,-0.002 -0.409,-0.174 -0.323,-0.433c-0.204,0.502 -0.388,1.012 -0.554,1.528Z" style="fill:#fff;fill-rule:nonzero;"/><path d="M100.257,71.384c-0.075,0.159 -0.186,0.231 -0.372,0.226c-3.335,-0.185 -25.628,-1.433 -25.628,-1.433l-0.001,-0c0,-0 -22.306,1.248 -25.642,1.433c-0.193,0.005 -0.306,-0.075 -0.382,-0.248c0.165,0.516 0.349,1.025 0.553,1.526c-0.084,-0.258 0.059,-0.428 0.324,-0.43c0.562,-0.004 12.14,-0.143 12.14,-0.143l25.998,-0c-0,-0 11.578,0.139 12.14,0.143c0.27,0.002 0.414,0.179 0.319,0.445c0.203,-0.499 0.386,-1.006 0.551,-1.519Z" style="fill:#fff;fill-rule:nonzero;"/><path d="M101.06,67.813c-0.057,0.25 -0.244,0.381 -0.494,0.373c-0.241,-0.007 -18.253,-1.037 -26.311,-1.104c-8.06,0.067 -26.084,1.097 -26.326,1.104c-0.244,0.008 -0.427,-0.116 -0.49,-0.355c0.076,0.57 0.176,1.133 0.299,1.69c-0.015,-0.227 0.169,-0.38 0.386,-0.376c3.348,0.06 20.759,0.442 26.132,0.442l0.001,-0c5.373,-0 22.772,-0.382 26.118,-0.442c0.214,-0.004 0.394,0.143 0.388,0.362c0.122,-0.558 0.222,-1.123 0.297,-1.694Z" style="fill:#fff;fill-rule:nonzero;"/><path d="M74.255,41.739c11.743,0 21.771,6.534 25.441,15.577c0.115,0.28 -0.029,0.468 -0.309,0.471c-0.562,0.003 -12.14,0.142 -12.14,0.142l-25.998,0c0,0 -11.578,-0.139 -12.14,-0.142c-0.279,-0.003 -0.424,-0.191 -0.309,-0.471c3.671,-9.043 13.699,-15.577 25.455,-15.577Z" style="fill:#007dc5;fill-rule:nonzero;"/><path d="M74.257,60.657c5.373,-0 22.772,0.382 26.118,0.443c0.232,0.004 0.427,-0.171 0.382,-0.423c-0.053,-0.302 -0.383,-1.503 -0.468,-1.74c-0.076,-0.212 -0.19,-0.308 -0.404,-0.301c-3.335,0.183 -25.628,1.432 -25.628,1.432l-0.001,-0c0,-0 -22.306,-1.249 -25.642,-1.432c-0.213,-0.007 -0.327,0.089 -0.403,0.301c-0.086,0.237 -0.415,1.438 -0.468,1.74c-0.044,0.252 0.15,0.427 0.381,0.423c3.348,-0.061 20.759,-0.443 26.132,-0.443l0.001,-0Z" style="fill:#007dc5;fill-rule:nonzero;"/><path d="M74.255,63.895c7.882,-0.034 23.403,0.605 26.618,0.689c0.245,0.006 0.351,-0.121 0.35,-0.319c-0.002,-0.376 -0.114,-1.543 -0.154,-1.788c-0.045,-0.28 -0.238,-0.426 -0.503,-0.418c-0.241,0.006 -18.253,1.036 -26.311,1.103c-8.06,-0.067 -26.084,-1.097 -26.326,-1.103c-0.265,-0.008 -0.459,0.138 -0.503,0.418c-0.04,0.245 -0.151,1.412 -0.154,1.788c-0.001,0.198 0.106,0.325 0.351,0.319c3.214,-0.084 18.749,-0.723 26.632,-0.689Z" style="fill:#007dc5;fill-rule:nonzero;"/><path d="M74.255,88.518c11.743,-0 21.771,-6.546 25.441,-15.589c0.115,-0.282 -0.029,-0.469 -0.309,-0.471c-0.562,-0.004 -12.14,-0.143 -12.14,-0.143l-25.998,-0c0,-0 -11.578,0.139 -12.14,0.143c-0.279,0.002 -0.424,0.189 -0.309,0.471c3.671,9.043 13.699,15.589 25.455,15.589Z" style="fill:#007dc5;fill-rule:nonzero;"/><path d="M74.257,69.587c5.373,-0 22.772,-0.382 26.118,-0.442c0.232,-0.005 0.427,0.17 0.382,0.422c-0.053,0.301 -0.383,1.502 -0.468,1.74c-0.076,0.212 -0.19,0.308 -0.404,0.303c-3.335,-0.185 -25.628,-1.433 -25.628,-1.433l-0.001,-0c0,-0 -22.306,1.248 -25.642,1.433c-0.213,0.005 -0.327,-0.091 -0.403,-0.303c-0.086,-0.238 -0.415,-1.439 -0.468,-1.74c-0.044,-0.252 0.15,-0.427 0.381,-0.422c3.348,0.06 20.759,0.442 26.132,0.442l0.001,-0Z" style="fill:#007dc5;fill-rule:nonzero;"/><path d="M74.255,66.349c7.882,0.034 23.403,-0.605 26.618,-0.688c0.245,-0.006 0.351,0.121 0.35,0.317c-0.002,0.377 -0.114,1.544 -0.154,1.789c-0.045,0.281 -0.238,0.427 -0.503,0.419c-0.241,-0.007 -18.253,-1.037 -26.311,-1.104c-8.06,0.067 -26.084,1.097 -26.326,1.104c-0.265,0.008 -0.459,-0.138 -0.503,-0.419c-0.04,-0.245 -0.151,-1.412 -0.154,-1.789c-0.001,-0.196 0.106,-0.323 0.351,-0.317c3.214,0.083 18.749,0.722 26.632,0.688Z" style="fill:#007dc5;fill-rule:nonzero;"/><path d="M32.874,96.719c-2.603,-0 -4.713,2.194 -4.713,4.902c0,2.707 2.11,4.901 4.713,4.901c2.604,-0 4.716,-2.194 4.716,-4.901c0,-2.708 -2.112,-4.902 -4.716,-4.902Zm0.009,8.423c-1.125,-0 -2.892,-0.831 -2.892,-3.521c-0,-2.692 1.76,-3.553 2.892,-3.553c1.131,0 2.891,0.858 2.891,3.553c-0,2.694 -1.767,3.521 -2.891,3.521Z" style="fill:#231f20;fill-rule:nonzero;"/><path d="M105.353,96.719c-2.602,-0 -4.711,2.194 -4.711,4.902c-0,2.707 2.109,4.901 4.711,4.901c2.605,-0 4.716,-2.194 4.716,-4.901c-0,-2.708 -2.111,-4.902 -4.716,-4.902Zm0.009,8.423c-1.126,-0 -2.893,-0.831 -2.893,-3.521c-0,-2.692 1.761,-3.553 2.893,-3.553c1.13,0 2.891,0.858 2.891,3.553c-0,2.694 -1.768,3.521 -2.891,3.521Z" style="fill:#231f20;fill-rule:nonzero;"/><rect x="19.207" y="96.944" width="1.702" height="9.353" style="fill:#231f20;fill-rule:nonzero;"/><rect x="49.613" y="96.944" width="1.703" height="9.353" style="fill:#231f20;fill-rule:nonzero;"/><rect x="86.934" y="96.944" width="1.702" height="9.353" style="fill:#231f20;fill-rule:nonzero;"/><path d="M59.091,98.198l0.744,-0l0.085,-1.212c-0.373,-0.041 -0.652,-0.061 -1.032,-0.061c-3.618,-0 -5.949,1.933 -5.949,4.696c0,2.763 2.331,4.695 5.949,4.695c0.38,-0 0.659,-0.021 1.032,-0.06l-0.085,-1.211l-0.744,0c-2.574,0 -4.263,-1.335 -4.263,-3.435c0,-2.101 1.703,-3.412 4.263,-3.412Z" style="fill:#231f20;fill-rule:nonzero;"/><path d="M45.758,102.528c-0,0.018 -0.008,0.024 -0.014,0.01c-1.243,-2.291 -3.901,-4.695 -5.52,-5.594l-1.159,-0l0,9.353l1.601,-0c-0,-0 -0.066,-7.212 -0.066,-7.226c0,-0.023 0.006,-0.031 0.02,-0.023c2.02,1.389 4.206,4.079 5.36,7.249l1.318,-0l-0,-9.353l-1.605,-0c-0,-0 0.065,5.573 0.065,5.584Z" style="fill:#231f20;fill-rule:nonzero;"/><path d="M97.589,102.528c-0,0.018 -0.009,0.024 -0.015,0.01c-1.242,-2.291 -3.9,-4.695 -5.519,-5.594l-1.159,-0l0,9.353l1.601,-0c-0,-0 -0.066,-7.212 -0.066,-7.226c-0,-0.023 0.005,-0.031 0.018,-0.023c2.022,1.389 4.208,4.079 5.361,7.249l1.32,-0l-0,-9.353l-1.607,-0c-0,-0 0.066,5.573 0.066,5.584Z" style="fill:#231f20;fill-rule:nonzero;"/><path d="M60.445,106.297l1.611,-0c0,-0 2.52,-5.971 2.613,-6.168c0.116,0.203 3.11,6.168 3.11,6.168l1.926,-0l-5.009,-9.545l-4.251,9.545Z" style="fill:#231f20;fill-rule:nonzero;"/><path d="M125.784,96.752l-4.25,9.545l1.611,-0c-0,-0 2.519,-5.971 2.613,-6.168c0.116,0.203 3.111,6.168 3.111,6.168l1.924,-0l-5.009,-9.545Z" style="fill:#231f20;fill-rule:nonzero;"/><path d="M23.937,100.746c0.989,-1.023 3.658,-3.802 3.658,-3.802l-2.046,-0l-3.889,4.095c1.868,1.231 3.429,2.9 4.395,5.258l1.784,-0c-0.737,-2.214 -2.153,-4.236 -3.902,-5.551Z" style="fill:#231f20;fill-rule:nonzero;"/><path d="M113.251,96.944l-1.704,-0l-0,9.353l5.413,-0l-0,-1.296l-3.709,0l-0,-8.057Z" style="fill:#231f20;fill-rule:nonzero;"/><path d="M122.604,96.944l-6.452,-0l0,1.295l2.374,-0l0,8.058l1.704,-0l0,-8.058l2.374,-0l0,-1.295Z" style="fill:#231f20;fill-rule:nonzero;"/><path d="M80.04,101.537c-0.171,0.328 -0.409,0.946 -0.571,1.384c-0.004,0.011 -0.019,0.011 -0.024,0c-0.158,-0.428 -0.397,-1.05 -0.566,-1.374c-0.811,-1.694 -2.099,-4.023 -2.867,-4.833c-0.452,0.826 -2.235,8.019 -2.609,9.583l1.706,-0c0,-0 1.344,-6.131 1.348,-6.153c0.004,-0.019 0.016,-0.025 0.026,-0.01c0.584,0.899 1.725,3.22 2.41,5.331l1.128,0c0.632,-1.972 1.81,-4.445 2.395,-5.343c0.009,-0.013 0.018,-0.006 0.022,0.01c0.003,0.015 1.356,6.165 1.356,6.165l1.703,-0c-0.375,-1.564 -2.142,-8.757 -2.594,-9.583c-0.785,0.81 -2.043,3.139 -2.863,4.823Z" style="fill:#231f20;fill-rule:nonzero;"/></svg>