<?xml version="1.0" encoding="UTF-8" standalone="no"?><!DOCTYPE svg PUBLIC "-//W3C//DTD SVG 1.1//EN" "http://www.w3.org/Graphics/SVG/1.1/DTD/svg11.dtd"><svg width="100%" height="100%" viewBox="0 0 1049 291" version="1.1" xmlns="http://www.w3.org/2000/svg" xmlns:xlink="http://www.w3.org/1999/xlink" xml:space="preserve" xmlns:serif="http://www.serif.com/" style="fill-rule:evenodd;clip-rule:evenodd;stroke-linejoin:round;stroke-miterlimit:2;"><rect id="Artboard1" x="0" y="0" width="1048.36" height="290.277" style="fill:none;"/><clipPath id="_clip1"><rect x="0" y="0" width="1048.36" height="290.277"/></clipPath><g clip-path="url(#_clip1)"><g id="Warstwa-1" serif:id="Warstwa 1"><path d="M15.64,286.894c-8.7,-0 -14.396,-0.596 -15.154,-0.684l1.896,-14.316c0.554,0.058 57.145,5.837 92.366,-22.825c18.988,-15.454 28.617,-38.421 28.617,-68.263c-0,-80.591 -81.588,-92.691 -85.063,-93.171l-12.912,-1.766l57.087,-71.159l-81.045,0l-0,-14.429l112.158,0l-60.817,75.804c26.334,7.284 86.338,31.871 86.338,104.721c-0,34.188 -11.434,60.8 -33.984,79.109c-28.825,23.408 -68.175,26.979 -89.487,26.979" style="fill:#8a8c8e;fill-rule:nonzero;"/><rect x="160.667" y="272.612" width="149.879" height="14.283" style="fill:#8a8c8e;"/><path d="M322.83,143.648c-13.913,34.546 -47.754,59 -87.221,59c-51.829,0 -94,-42.162 -94,-94c0,-51.825 42.171,-93.995 94,-93.995c39.471,-0 73.313,24.462 87.225,59.008l15.371,-0c-14.592,-42.663 -55.05,-73.438 -102.596,-73.438c-59.779,0 -108.421,48.642 -108.421,108.425c0,59.78 48.642,108.421 108.421,108.421c47.542,0 88,-30.771 102.596,-73.421l-15.375,0Z" style="fill:#d1d3d4;fill-rule:nonzero;"/><path d="M289.501,97.913c-0.188,0.112 -0.342,0.187 -0.479,0.221c-0.084,0.033 -0.171,0.046 -0.263,0.046c-0.017,-0 -0.046,-0.009 -0.096,-0.013c-0.05,-0.017 -0.108,-0.033 -0.171,-0.067c-0.245,-0.104 -0.479,-0.229 -0.675,-0.391c-0.116,-0.071 -0.195,-0.146 -0.229,-0.234c-0.016,-0.016 -0.033,-0.05 -0.041,-0.075c-0.017,-0.066 -0,-0.129 0.041,-0.204c0.113,-0.221 0.463,-0.562 1.034,-1.025c0.62,-0.529 1.416,-1.137 2.383,-1.821c0.987,-0.645 2.046,-1.245 3.167,-1.808c1.066,-0.562 2.212,-1.067 3.416,-1.512c1.354,-0.467 2.592,-0.825 3.729,-1.075c0.846,-0.171 1.521,-0.271 2.034,-0.271c0.091,-0 0.187,0.008 0.279,0.016c0.512,0 1.042,0.109 1.6,0.317c0.646,0.238 1.279,0.529 1.904,0.871c0.571,0.296 1.004,0.654 1.313,1.075c0.17,0.333 0.316,0.692 0.408,1.075c0.583,2.329 -0.171,5.942 -2.263,10.842c-2.1,4.887 -4.908,10.137 -8.425,15.737c-3.525,5.608 -6.6,10.042 -9.237,13.321c6.037,-1.479 12.292,-2.579 18.717,-3.288c3.55,-0.391 6.733,-0.591 9.545,-0.591c2.288,-0 4.338,0.137 6.146,0.396c0.792,0.1 1.484,0.245 2.067,0.433c0.296,0.104 0.45,0.204 0.471,0.317c0.008,0.016 -0,0.033 -0.004,0.058c-0.017,0.062 -0.109,0.121 -0.28,0.187c-0.154,0.046 -0.408,0.08 -0.741,0.08l-0.163,-0c-0.9,-0.042 -1.837,-0.067 -2.808,-0.067c-5.783,-0 -12.863,0.817 -21.246,2.442c-8.383,1.62 -15.779,3.662 -22.183,6.129c-1.134,0.408 -1.946,0.666 -2.442,0.758c-0.108,0.033 -0.187,0.054 -0.287,0.079c-0.025,0.009 -0.063,0.017 -0.113,0.017c-0.196,-0 -0.358,-0.104 -0.471,-0.333c-0.058,-0.113 -0.108,-0.25 -0.146,-0.4c-0.033,-0.138 -0.058,-0.317 -0.075,-0.55c-0.008,-0.238 0.067,-0.425 0.23,-0.571c1.77,-1.213 4.491,-2.392 8.154,-3.534c0.896,-1.341 1.921,-2.862 3.075,-4.562c4.116,-5.942 8.341,-12.55 12.679,-19.817c4.346,-7.266 6.746,-13.183 7.2,-17.766c-0.004,-0.23 -0.029,-0.417 -0.063,-0.563c-0.025,-0.079 -0.066,-0.179 -0.12,-0.283c-0.059,-0.113 -0.163,-0.196 -0.321,-0.246c-0.121,-0.063 -0.275,-0.088 -0.454,-0.088c-0.034,0 -0.113,0.009 -0.23,0.009c-0.129,0.008 -0.395,0.054 -0.82,0.137c-0.921,0.204 -2.117,0.538 -3.596,1.017c-1.442,0.462 -2.884,1.033 -4.329,1.683c-1.434,0.671 -2.759,1.371 -3.971,2.1c-0.475,0.304 -0.921,0.588 -1.329,0.854c-0.625,0.425 -1.13,0.734 -1.521,0.938" style="fill:#6c6e70;fill-rule:nonzero;"/><path d="M327.855,108.606l-0.795,0.959c1.241,-0.121 2.57,-0.234 3.954,-0.342c2.433,-0.163 4.704,-0.242 6.812,-0.242c2.042,-4.779 4.196,-9.483 6.459,-14.112c0.312,-0.642 0.604,-1.263 0.87,-1.854c0.263,-0.588 0.467,-1.075 0.605,-1.45c0.137,-0.35 0.212,-0.563 0.187,-0.617c0,-0.025 -0.025,-0.033 -0.05,-0.033c-0.067,-0 -0.179,0.05 -0.35,0.145c-0.471,0.238 -1.458,0.984 -2.971,2.263c-5.1,4.508 -10.008,9.604 -14.721,15.283m-2.295,2.8c-3.784,4.663 -7.167,9.138 -10.163,13.413c-0.308,0.471 -0.562,0.779 -0.758,0.95c-0.154,0.154 -0.317,0.229 -0.471,0.229l-0.017,-0c-0.179,-0.017 -0.358,-0.075 -0.537,-0.179c-0.179,-0.109 -0.334,-0.213 -0.471,-0.317c-0,-0.008 -0.017,-0.017 -0.025,-0.017l-0.058,-0.058c-0.121,-0.096 -0.221,-0.171 -0.292,-0.237c-0.083,-0.063 -0.146,-0.13 -0.196,-0.217c-0.058,-0.05 -0.096,-0.125 -0.129,-0.229l-0.008,-0.05c-0.025,-0.104 -0.017,-0.25 0.041,-0.438c0.046,-0.179 0.179,-0.458 0.379,-0.804c2.075,-3.5 4.705,-7.279 7.88,-11.321c-0.813,0.138 -1.546,0.292 -2.213,0.446c-0.229,0.067 -0.458,0.113 -0.658,0.154c-0.834,0.221 -1.509,0.367 -2.013,0.442c-0.104,0.008 -0.204,0.008 -0.3,0.008c-0.179,0 -0.358,-0.016 -0.529,-0.05c-0.171,-0.041 -0.292,-0.091 -0.375,-0.146c-0.154,-0.1 -0.25,-0.195 -0.275,-0.287l-0.008,-0.038c-0.009,-0.05 -0.009,-0.091 0.016,-0.125c0.017,-0.045 0.071,-0.095 0.146,-0.145c0.079,-0.055 0.204,-0.121 0.359,-0.213c0.591,-0.275 1.52,-0.6 2.783,-0.967c1.35,-0.383 2.879,-0.708 4.587,-1c1.167,-1.433 2.392,-2.904 3.688,-4.412c5.633,-6.508 11.012,-11.963 16.154,-16.379c1.138,-0.888 1.971,-1.392 2.508,-1.534c0.234,-0.095 0.446,-0.154 0.65,-0.154c0.017,0 0.08,0.009 0.196,0.017c0.121,0.017 0.35,0.1 0.692,0.271c0.358,0.187 0.762,0.421 1.204,0.721c0.429,0.295 0.829,0.595 1.188,0.912c0.333,0.3 0.591,0.638 0.762,1.008c0.025,0.059 0.05,0.134 0.075,0.205c0.083,0.341 0.033,0.766 -0.146,1.262c-1.383,3.238 -2.883,6.6 -4.491,10.092c-1.059,2.279 -2.1,4.558 -3.1,6.858c1.291,0.058 2.512,0.163 3.654,0.304c1.146,0.171 1.95,0.363 2.408,0.6c0.504,0.221 0.863,0.446 1.075,0.667c0.096,0.1 0.163,0.196 0.183,0.296l0.017,0.079c0.017,0.033 0.017,0.075 0.008,0.092c-0.008,0.029 -0.054,0.037 -0.129,0.037c-0.096,0 -0.25,-0.029 -0.487,-0.104c-0.034,-0 -0.059,-0.008 -0.075,-0.008c-0.396,-0.163 -1.113,-0.309 -2.163,-0.455c-1.475,-0.15 -3.158,-0.229 -5.046,-0.237c-0.791,1.829 -1.554,3.671 -2.304,5.517c-1.887,4.6 -3.362,9.091 -4.412,13.47c-0.267,1.188 -0.525,2.121 -0.788,2.813c-0.254,0.692 -0.496,1.271 -0.716,1.733c-0.213,0.442 -0.446,0.663 -0.709,0.671l-0.046,0c-0.245,0 -0.483,-0.108 -0.716,-0.329c-0.238,-0.208 -0.425,-0.446 -0.579,-0.7c-0.146,-0.217 -0.238,-0.371 -0.263,-0.479l-0.004,-0.034c-0.058,-0.958 0.121,-2.283 0.521,-3.97c1.383,-5.867 3.254,-11.655 5.621,-17.35l0.512,-1.246c-3.5,0.158 -6.95,0.425 -10.358,0.808c-0.434,0.054 -0.854,0.104 -1.279,0.154" style="fill:#6c6e70;fill-rule:nonzero;"/><path d="M373.07,83.337l-28.167,0.513c-0.896,-0.079 -1.383,-0.283 -1.462,-0.608l-0.042,-0.246c-0.025,-0.179 0.154,-0.425 0.563,-0.75c0.404,-0.317 0.804,-0.479 1.204,-0.479l57.679,-0.113c0.587,0 0.946,0.096 1.067,0.283c0.025,0.042 0.041,0.084 0.058,0.121c0.033,0.154 -0.025,0.321 -0.171,0.475c-0.154,0.163 -0.383,0.25 -0.708,0.275l-26.554,0.463c0.262,0.133 0.433,0.279 0.495,0.441l0.025,0.063c0.034,0.158 -0.016,0.367 -0.162,0.637c-4.329,7.675 -8.913,15.446 -13.738,23.33c-3.929,6.445 -7.7,12.804 -11.304,19.07c-0.233,0.359 -0.512,0.575 -0.829,0.65c-0.129,0.034 -0.262,0.042 -0.4,0.042c-0.204,0 -0.437,-0.042 -0.7,-0.125c-0.267,-0.079 -0.521,-0.204 -0.746,-0.367c-0.237,-0.154 -0.383,-0.291 -0.425,-0.387l-0.008,-0.05c-0.017,-0.075 -0.008,-0.171 0.025,-0.275c0.033,-0.108 0.112,-0.288 0.237,-0.538c3.459,-6.366 7.38,-13.462 11.775,-21.308c4.392,-7.833 8.488,-14.875 12.288,-21.117" style="fill:#6c6e70;fill-rule:nonzero;"/><path d="M801.162,232.426l-12.279,13.809l0,40.52l-53.754,0l0,-163.92l53.754,-0l0,59.479l53.292,-59.479l59.542,-0l-64.875,72.125l68.12,91.795l-63.258,0l-40.542,-54.329Z" style="fill:#ed1c24;fill-rule:nonzero;"/><path d="M934.04,285.934c-12.746,-3.042 -23.2,-7.146 -31.392,-12.288l17.605,-40.283c7.729,4.525 16.379,8.162 25.954,10.887c9.579,2.734 18.766,4.096 27.575,4.096c7.562,0 12.971,-0.733 16.216,-2.225c3.238,-1.479 4.863,-3.708 4.863,-6.671c-0,-3.433 -2.121,-6 -6.379,-7.733c-4.238,-1.708 -11.23,-3.587 -20.963,-5.612c-12.508,-2.655 -22.933,-5.505 -31.275,-8.546c-8.346,-3.046 -15.604,-8.034 -21.779,-14.992c-6.175,-6.942 -9.271,-16.35 -9.271,-28.212c0,-10.305 2.863,-19.671 8.575,-28.1c5.713,-8.434 14.25,-15.067 25.596,-19.909c11.358,-4.833 25.142,-7.258 41.362,-7.258c11.121,-0 22.042,1.221 32.784,3.629c10.729,2.425 20.196,5.975 28.383,10.663l-16.45,40.037c-15.912,-8.112 -30.971,-12.175 -45.179,-12.175c-14.054,0 -21.083,3.433 -21.083,10.304c-0,3.271 2.083,5.738 6.254,7.379c4.171,1.63 11.037,3.388 20.621,5.267c12.354,2.346 22.783,5.029 31.27,8.075c8.5,3.05 15.875,7.996 22.134,14.867c6.258,6.866 9.387,16.241 9.387,28.1c0,10.304 -2.866,19.637 -8.579,27.987c-5.712,8.35 -14.242,14.988 -25.596,19.896c-11.358,4.925 -25.141,7.383 -41.362,7.383c-13.438,0 -26.525,-1.525 -39.271,-4.566" style="fill:#ed1c24;fill-rule:nonzero;"/><path d="M556.796,165.867l-54.675,-0l-0,-43.038l54.675,0l-0,43.038Zm105.762,67.616c-7.025,6.788 -16.408,10.188 -28.146,10.188l-22.937,-0l-0,-77.75l22.937,-0c11.738,-0 21.121,3.396 28.146,10.191c7.029,6.788 10.546,16.355 10.546,28.684c0,12.337 -3.517,21.891 -10.546,28.687m54.213,-72.241c-7.642,-12.338 -18.379,-21.817 -32.2,-28.455c-13.825,-6.625 -29.775,-9.95 -47.846,-9.95l-25.263,0l0,43.03l-54.666,-0l-0,120.887l79.929,0c18.071,0 34.021,-3.321 47.846,-9.958c13.821,-6.625 24.558,-16.113 32.2,-28.45c7.65,-12.329 11.475,-26.85 11.475,-43.55c-0,-16.704 -3.825,-31.225 -11.475,-43.554" style="fill:#ed1c24;fill-rule:nonzero;"/></g></g></svg>