<?xml version="1.0" encoding="UTF-8" standalone="no"?><!DOCTYPE svg PUBLIC "-//W3C//DTD SVG 1.1//EN" "http://www.w3.org/Graphics/SVG/1.1/DTD/svg11.dtd"><svg width="100%" height="100%" viewBox="0 0 200 200" version="1.1" xmlns="http://www.w3.org/2000/svg" xmlns:xlink="http://www.w3.org/1999/xlink" xml:space="preserve" xmlns:serif="http://www.serif.com/" style="fill-rule:evenodd;clip-rule:evenodd;stroke-linejoin:round;stroke-miterlimit:2;"><path d="M179.167,172.708l-0,-135.208l-158.334,0l0,66.667l-12.5,-0l0,-66.667c0,-3.472 1.224,-6.424 3.672,-8.854c2.448,-2.431 5.391,-3.646 8.828,-3.646l158.334,0c3.437,0 6.38,1.224 8.828,3.672c2.448,2.448 3.672,5.39 3.672,8.828l-0,120.833c-0,3.611 -1.181,6.771 -3.542,9.48c-2.361,2.708 -5.347,4.34 -8.958,4.895Zm-104.167,-56.25c-9.167,0 -16.667,-2.916 -22.5,-8.75c-5.833,-5.833 -8.75,-13.333 -8.75,-22.5c0,-9.166 2.917,-16.666 8.75,-22.5c5.833,-5.833 13.333,-8.75 22.5,-8.75c9.167,0 16.667,2.917 22.5,8.75c5.833,5.834 8.75,13.334 8.75,22.5c0,9.167 -2.917,16.667 -8.75,22.5c-5.833,5.834 -13.333,8.75 -22.5,8.75Zm0,-12.5c5.417,0 9.896,-1.77 13.438,-5.312c3.541,-3.542 5.312,-8.021 5.312,-13.438c0,-5.416 -1.771,-9.895 -5.312,-13.437c-3.542,-3.542 -8.021,-5.313 -13.438,-5.313c-5.417,0 -9.896,1.771 -13.437,5.313c-3.542,3.541 -5.313,8.021 -5.313,13.437c0,5.417 1.771,9.896 5.313,13.438c3.541,3.541 8.02,5.312 13.437,5.312Zm-66.667,79.375l0,-19.583c0,-5.278 1.32,-9.792 3.959,-13.542c2.639,-3.75 6.041,-6.597 10.208,-8.541c9.306,-4.167 18.229,-7.292 26.771,-9.375c8.542,-2.084 17.118,-3.125 25.729,-3.125c8.611,-0 17.153,1.076 25.625,3.229c8.472,2.153 17.356,5.256 26.65,9.311c4.348,1.962 7.833,4.807 10.456,8.535c2.624,3.727 3.936,8.23 3.936,13.508l-0,19.583l-133.334,0Zm12.5,-12.5l108.334,0l-0,-7.083c-0,-2.222 -0.66,-4.34 -1.979,-6.354c-1.32,-2.014 -2.952,-3.507 -4.896,-4.479c-8.889,-4.306 -17.014,-7.257 -24.375,-8.854c-7.361,-1.598 -15,-2.396 -22.917,-2.396c-7.917,-0 -15.625,0.798 -23.125,2.396c-7.5,1.597 -15.625,4.548 -24.375,8.854c-1.944,0.972 -3.542,2.465 -4.792,4.479c-1.25,2.014 -1.875,4.132 -1.875,6.354l0,7.083Z" style="fill:#fff;fill-rule:nonzero;stroke:#fff;stroke-width:4.17px;"/></svg>