<?xml version="1.0" encoding="UTF-8" standalone="no"?><!DOCTYPE svg PUBLIC "-//W3C//DTD SVG 1.1//EN" "http://www.w3.org/Graphics/SVG/1.1/DTD/svg11.dtd"><svg width="100%" height="100%" viewBox="0 0 163 173" version="1.1" xmlns="http://www.w3.org/2000/svg" xmlns:xlink="http://www.w3.org/1999/xlink" xml:space="preserve" xmlns:serif="http://www.serif.com/" style="fill-rule:evenodd;clip-rule:evenodd;stroke-linejoin:round;stroke-miterlimit:2;"><rect id="Artboard1" x="0" y="0" width="162.5" height="172.26" style="fill:none;"/><clipPath id="_clip1"><rect x="0" y="0" width="162.5" height="172.26"/></clipPath><g clip-path="url(#_clip1)"><path d="M138.333,152.292l5.625,-5.625l-17.5,-15.834l0,-25.833l-8.75,0l0,28.287l20.625,19.005Zm-65.416,-147.084c1.99,-1.111 4.084,-1.666 6.284,-1.666c2.199,-0 4.271,0.555 6.216,1.666l62.5,36.042c1.979,1.17 3.515,2.713 4.609,4.628c1.094,1.915 1.641,3.983 1.641,6.205l-0,32.709c-1.897,-1.411 -3.899,-2.632 -6.006,-3.662c-2.107,-1.031 -4.272,-1.963 -6.494,-2.797l-0,-20l-31.042,18.125c-8.194,1.945 -15.59,5.486 -22.188,10.625c-6.597,5.139 -11.77,11.389 -15.52,18.75l-0,-14.791l-56.25,-32.5l-0,64.375l55.208,31.875c1.389,2.916 3.021,5.729 4.896,8.437c1.875,2.709 3.993,5.243 6.354,7.604c-1.667,0.695 -3.403,0.938 -5.208,0.729c-1.806,-0.208 -3.473,-0.798 -5,-1.77l-62.5,-36.042c-1.98,-1.17 -3.516,-2.713 -4.61,-4.628c-1.093,-1.915 -1.64,-3.983 -1.64,-6.205l-0,-70.834c-0,-2.222 0.547,-4.29 1.64,-6.205c1.094,-1.915 2.63,-3.458 4.61,-4.628l62.5,-36.042Zm6.25,10.834l-55.625,32.083l55.625,32.292l55.416,-32.292l-55.416,-32.083Zm43.75,154.791c-10.834,0 -20.139,-3.847 -27.917,-11.541c-7.778,-7.695 -11.667,-17 -11.667,-27.917c0,-10.917 3.889,-20.264 11.667,-28.042c7.778,-7.777 17.083,-11.666 27.917,-11.666c10.833,-0 20.139,3.879 27.916,11.639c7.778,7.759 11.667,17.143 11.667,28.152c0,10.894 -3.889,20.18 -11.667,27.858c-7.777,7.678 -17.083,11.517 -27.916,11.517Z" style="fill:#fff;fill-rule:nonzero;stroke:#fff;stroke-width:4.17px;"/></g></svg>