<?xml version="1.0" encoding="UTF-8" standalone="no"?><!DOCTYPE svg PUBLIC "-//W3C//DTD SVG 1.1//EN" "http://www.w3.org/Graphics/SVG/1.1/DTD/svg11.dtd"><svg width="100%" height="100%" viewBox="0 0 200 200" version="1.1" xmlns="http://www.w3.org/2000/svg" xmlns:xlink="http://www.w3.org/1999/xlink" xml:space="preserve" xmlns:serif="http://www.serif.com/" style="fill-rule:evenodd;clip-rule:evenodd;stroke-linejoin:round;stroke-miterlimit:2;"><path d="M100.019,97.917c4.015,-0 7.446,-1.43 10.294,-4.29c2.847,-2.859 4.27,-6.297 4.27,-10.312c0,-4.016 -1.429,-7.447 -4.289,-10.294c-2.859,-2.847 -6.297,-4.271 -10.313,-4.271c-4.015,0 -7.446,1.43 -10.293,4.289c-2.848,2.86 -4.271,6.297 -4.271,10.313c-0,4.015 1.429,7.447 4.289,10.294c2.859,2.847 6.297,4.271 10.313,4.271Zm-0.019,68.958c18.472,-16.806 32.118,-32.049 40.938,-45.729c8.819,-13.681 13.229,-25.729 13.229,-36.146c-0,-16.36 -5.229,-29.755 -15.686,-40.186c-10.457,-10.432 -23.284,-15.647 -38.481,-15.647c-15.197,-0 -28.024,5.215 -38.481,15.647c-10.457,10.431 -15.686,23.826 -15.686,40.186c0,10.417 4.514,22.465 13.542,36.146c9.028,13.68 22.569,28.923 40.625,45.729Zm0,16.458c-22.361,-19.027 -39.062,-36.701 -50.104,-53.02c-11.042,-16.32 -16.563,-31.424 -16.563,-45.313c0,-20.833 6.702,-37.431 20.105,-49.792c13.402,-12.361 28.923,-18.541 46.562,-18.541c17.639,-0 33.16,6.18 46.563,18.541c13.402,12.361 20.104,28.959 20.104,49.792c-0,13.889 -5.521,28.993 -16.563,45.313c-11.041,16.319 -27.743,33.993 -50.104,53.02Z" style="fill:#fff;fill-rule:nonzero;stroke:#fff;stroke-width:4.17px;"/></svg>