<svg width="30" height="29" viewBox="0 0 30 29" fill="none" xmlns="http://www.w3.org/2000/svg">
<path d="M0.481774 24.4157V22.1892H5.04602L4.52652 21.6697C3.04221 20.1854 1.97227 18.6825 1.3167 17.1611C0.661128 15.6397 0.333344 14.1492 0.333344 12.6896C0.333344 9.99316 1.10642 7.58115 2.65258 5.45364C4.19873 3.32613 6.23347 1.8542 8.75679 1.03783V3.3385C6.87667 4.08066 5.37381 5.30521 4.24821 7.01217C3.12261 8.71912 2.55981 10.6116 2.55981 12.6896C2.55981 13.9761 2.77627 15.1944 3.20919 16.3448C3.64212 17.4951 4.37808 18.5403 5.4171 19.4804L6.53033 20.4823V16.1407H8.75679V24.4157H0.481774ZM26.4201 12.0217H24.1936C24.1441 10.76 23.8967 9.59116 23.4515 8.51503C23.0062 7.43891 22.3135 6.46792 21.3734 5.60208L20.2602 4.60017V8.94177H18.0337V0.666748H26.3087V2.89321H21.7074L22.264 3.41272C23.6988 4.77334 24.7379 6.1958 25.3811 7.68011C26.0243 9.16442 26.3706 10.6116 26.4201 12.0217ZM21.4105 28.8686L21.225 27.0874C20.7302 26.939 20.2231 26.7226 19.7036 26.4381C19.1841 26.1536 18.7635 25.8382 18.4419 25.4918L16.8834 26.234L15.5846 24.2302L16.9947 23.1169C16.871 22.5479 16.8092 22.0346 16.8092 21.5769C16.8092 21.1193 16.871 20.606 16.9947 20.037L15.5846 18.9237L16.8834 16.8828L18.4419 17.625C18.7635 17.3281 19.1841 17.0313 19.7036 16.7344C20.2231 16.4375 20.7302 16.2149 21.225 16.0665L21.4105 14.2482H23.637L23.8596 16.0665C24.3544 16.2149 24.8615 16.4375 25.3811 16.7344C25.9006 17.0313 26.3211 17.3281 26.6427 17.625L28.2012 16.8828L29.5 18.9237L28.0899 20.037C28.2136 20.606 28.2755 21.1193 28.2755 21.5769C28.2755 22.0346 28.2136 22.5479 28.0899 23.1169L29.5 24.2302L28.2012 26.234L26.6427 25.4918C26.3211 25.8382 25.9006 26.1536 25.3811 26.4381C24.8615 26.7226 24.3544 26.939 23.8596 27.0874L23.637 28.8686H21.4105ZM22.5238 25.3434C23.6123 25.3434 24.5152 24.9847 25.2326 24.2673C25.95 23.5498 26.3087 22.6469 26.3087 21.5584C26.3087 20.4699 25.95 19.5669 25.2326 18.8495C24.5152 18.1321 23.6123 17.7734 22.5238 17.7734C21.4353 17.7734 20.5323 18.1321 19.8149 18.8495C19.0975 19.5669 18.7388 20.4699 18.7388 21.5584C18.7388 22.6469 19.0975 23.5498 19.8149 24.2673C20.5323 24.9847 21.4353 25.3434 22.5238 25.3434Z" fill="white"/>
</svg>
