<svg width="38" height="38" viewBox="0 0 38 38" fill="none" xmlns="http://www.w3.org/2000/svg">
<path d="M19.04 37.7916L13.4155 32.3333H5.66619V24.5833L0.0833435 18.9999L5.66619 13.4166V5.66659H13.4155L19.04 0.083252L24.5812 5.66659H32.3305V13.4166L37.9133 18.9999L32.3305 24.5833V32.3333H24.5812L19.04 37.7916ZM19.04 34.2916L23.5362 29.8333H29.8307V23.5416L34.372 18.9999L29.8307 14.4583V8.16659H23.5396L19.04 3.62492L14.4571 8.16659H8.16597V14.4583L3.6247 18.9999L8.16597 23.5416V29.8333H14.4154L19.04 34.2916ZM14.1238 26.0833L18.9983 23.1249L23.8729 26.0833L22.5814 20.5416L26.9143 16.7916L21.2065 16.3333L18.9983 11.0833L16.7902 16.3333L11.0824 16.7916L15.4153 20.5416L14.1238 26.0833Z" fill="white"/>
</svg>
