<svg width="45" height="42" viewBox="0 0 45 42" fill="none" xmlns="http://www.w3.org/2000/svg">
<path d="M15.8 42L12 35.5L4.45 33.95L5.3 26.6L0.5 21L5.3 15.45L4.45 8.1L12 6.55L15.8 0L22.5 3.1L29.2 0L33.05 6.55L40.55 8.1L39.7 15.45L44.5 21L39.7 26.6L40.55 33.95L33.05 35.5L29.2 42L22.5 38.9L15.8 42ZM17.15 38.05L22.5 35.8L28 38.05L31.35 33.05L37.2 31.55L36.6 25.6L40.65 21L36.6 16.3L37.2 10.35L31.35 8.95L27.9 3.95L22.5 6.2L17 3.95L13.65 8.95L7.8 10.35L8.4 16.3L4.35 21L8.4 25.6L7.8 31.65L13.65 33.05L17.15 38.05ZM20.35 27.65L31.7 16.4L29.45 14.35L20.35 23.35L15.6 18.4L13.3 20.65L20.35 27.65Z" fill="white"/>
</svg>
