<svg width="37" height="43" viewBox="0 0 37 43" fill="none" xmlns="http://www.w3.org/2000/svg">
<path d="M18.1956 43C15.5956 40.7 12.754 38.9333 9.67062 37.7C6.58728 36.4667 3.42895 35.85 0.195618 35.85V14.4C3.32895 14.4 6.43728 15.1167 9.52062 16.55C12.604 17.9833 15.4956 19.9833 18.1956 22.55C20.8956 19.9833 23.7873 17.9833 26.8706 16.55C29.954 15.1167 33.0623 14.4 36.1956 14.4V35.85C32.9623 35.85 29.804 36.4667 26.7206 37.7C23.6373 38.9333 20.7956 40.7 18.1956 43ZM18.1956 39.15C20.5623 37.45 23.004 36.0917 25.5206 35.075C28.0373 34.0583 30.5956 33.4167 33.1956 33.15V17.65C30.929 18.0167 28.5373 18.925 26.0206 20.375C23.504 21.825 20.8956 23.8333 18.1956 26.4C15.2623 23.7 12.5956 21.65 10.1956 20.25C7.79562 18.85 5.46228 17.9833 3.19562 17.65V33.15C5.79562 33.4167 8.35395 34.0583 10.8706 35.075C13.3873 36.0917 15.829 37.45 18.1956 39.15ZM18.3456 15.4C16.179 15.4 14.354 14.6583 12.8706 13.175C11.3873 11.6917 10.6456 9.86667 10.6456 7.7C10.6456 5.53333 11.3873 3.70833 12.8706 2.225C14.354 0.741667 16.179 0 18.3456 0C20.5123 0 22.3373 0.741667 23.8206 2.225C25.304 3.70833 26.0456 5.53333 26.0456 7.7C26.0456 9.86667 25.304 11.6917 23.8206 13.175C22.3373 14.6583 20.5123 15.4 18.3456 15.4ZM18.3536 12.4C19.6483 12.4 20.754 11.939 21.6706 11.0171C22.5873 10.095 23.0456 8.98672 23.0456 7.69205C23.0456 6.39735 22.5846 5.29167 21.6627 4.375C20.7407 3.45833 19.6323 3 18.3377 3C17.043 3 15.9373 3.46098 15.0206 4.38295C14.104 5.30495 13.6456 6.41328 13.6456 7.70795C13.6456 9.00265 14.1066 10.1083 15.0286 11.025C15.9506 11.9417 17.0589 12.4 18.3536 12.4Z" fill="white"/>
</svg>
