<svg width="41" height="40" viewBox="0 0 41 40" fill="none" xmlns="http://www.w3.org/2000/svg">
<path d="M20.8913 40C18.158 40 15.5746 39.475 13.1413 38.425C10.708 37.375 8.58296 35.9417 6.7663 34.125C4.94963 32.3083 3.5163 30.1833 2.4663 27.75C1.4163 25.3167 0.891296 22.7333 0.891296 20C0.891296 17.1667 1.42463 14.5333 2.4913 12.1C3.55796 9.66667 5.0163 7.55 6.8663 5.75C8.7163 3.95 10.883 2.54167 13.3663 1.525C15.8496 0.508333 18.508 0 21.3413 0C23.9746 0 26.4746 0.441667 28.8413 1.325C31.208 2.20833 33.283 3.43333 35.0663 5C36.8496 6.56667 38.2663 8.425 39.3163 10.575C40.3663 12.725 40.8913 15.0833 40.8913 17.65C40.8913 21.25 39.8413 24.0917 37.7413 26.175C35.6413 28.2583 32.858 29.3 29.3913 29.3H25.6413C25.0413 29.3 24.5246 29.5333 24.0913 30C23.658 30.4667 23.4413 30.9833 23.4413 31.55C23.4413 32.45 23.683 33.2167 24.1663 33.85C24.6496 34.4833 24.8913 35.2167 24.8913 36.05C24.8913 37.3167 24.5413 38.2917 23.8413 38.975C23.1413 39.6583 22.158 40 20.8913 40ZM9.2413 21.3C9.90796 21.3 10.4913 21.05 10.9913 20.55C11.4913 20.05 11.7413 19.4667 11.7413 18.8C11.7413 18.1333 11.4913 17.55 10.9913 17.05C10.4913 16.55 9.90796 16.3 9.2413 16.3C8.57463 16.3 7.9913 16.55 7.4913 17.05C6.9913 17.55 6.7413 18.1333 6.7413 18.8C6.7413 19.4667 6.9913 20.05 7.4913 20.55C7.9913 21.05 8.57463 21.3 9.2413 21.3ZM15.5413 12.8C16.208 12.8 16.7913 12.55 17.2913 12.05C17.7913 11.55 18.0413 10.9667 18.0413 10.3C18.0413 9.63333 17.7913 9.05 17.2913 8.55C16.7913 8.05 16.208 7.8 15.5413 7.8C14.8746 7.8 14.2913 8.05 13.7913 8.55C13.2913 9.05 13.0413 9.63333 13.0413 10.3C13.0413 10.9667 13.2913 11.55 13.7913 12.05C14.2913 12.55 14.8746 12.8 15.5413 12.8ZM26.2413 12.8C26.908 12.8 27.4913 12.55 27.9913 12.05C28.4913 11.55 28.7413 10.9667 28.7413 10.3C28.7413 9.63333 28.4913 9.05 27.9913 8.55C27.4913 8.05 26.908 7.8 26.2413 7.8C25.5746 7.8 24.9913 8.05 24.4913 8.55C23.9913 9.05 23.7413 9.63333 23.7413 10.3C23.7413 10.9667 23.9913 11.55 24.4913 12.05C24.9913 12.55 25.5746 12.8 26.2413 12.8ZM32.7913 21.3C33.458 21.3 34.0413 21.05 34.5413 20.55C35.0413 20.05 35.2913 19.4667 35.2913 18.8C35.2913 18.1333 35.0413 17.55 34.5413 17.05C34.0413 16.55 33.458 16.3 32.7913 16.3C32.1246 16.3 31.5413 16.55 31.0413 17.05C30.5413 17.55 30.2913 18.1333 30.2913 18.8C30.2913 19.4667 30.5413 20.05 31.0413 20.55C31.5413 21.05 32.1246 21.3 32.7913 21.3ZM20.8913 37C21.258 37 21.5163 36.925 21.6663 36.775C21.8163 36.625 21.8913 36.3833 21.8913 36.05C21.8913 35.5833 21.6496 35.15 21.1663 34.75C20.683 34.35 20.4413 33.4667 20.4413 32.1C20.4413 30.5667 20.9413 29.2167 21.9413 28.05C22.9413 26.8833 24.208 26.3 25.7413 26.3H29.3913C31.9246 26.3 33.9746 25.5583 35.5413 24.075C37.108 22.5917 37.8913 20.45 37.8913 17.65C37.8913 13.25 36.2246 9.70833 32.8913 7.025C29.558 4.34167 25.708 3 21.3413 3C16.4746 3 12.3496 4.64167 8.9663 7.925C5.58296 11.2083 3.8913 15.2333 3.8913 20C3.8913 24.7 5.54963 28.7083 8.8663 32.025C12.183 35.3417 16.1913 37 20.8913 37Z" fill="white"/>
</svg>
