<svg id="Warstwa_1" data-name="Warstwa 1" xmlns="http://www.w3.org/2000/svg" viewBox="0 0 37.36 61.24"><defs><style>.cls-1{fill:#929497;}.cls-1,.cls-2{fill-rule:evenodd;}.cls-2{fill:#fff;}</style></defs><title>rozwiązania_dla_biura</title><polygon class="cls-1" points="0.95 29.42 36.34 29.42 36.34 59.61 0.95 59.61 0.95 29.42 0.95 29.42"/><path class="cls-1" d="M36.34,4.9H13.68V4.37L31.77,2A1,1,0,0,0,32.66.89,1,1,0,0,0,31.51,0L13.68,2.31V1a1.05,1.05,0,0,0-.34-.76A1,1,0,0,0,12.55,0L.91,1.23a1,1,0,0,0-.91,1V58.59a1,1,0,0,0,1,1h2v.61a1,1,0,1,0,2,0v-.61H32.25v.61a1,1,0,0,0,2,0v-.61h2a1,1,0,0,0,1-1V5.92a1,1,0,0,0-1-1ZM2,43.35H35.32V50H2v-6.6ZM2,42V35.38H35.32V42Zm0-8V13.13h8.71V25a.68.68,0,0,0,.3.56.66.66,0,0,0,.38.12.7.7,0,0,0,.25,0,47.9,47.9,0,0,1,23.64-2.86V34ZM12.11,22.16a47.92,47.92,0,0,1,23.21-2.7v2a49.28,49.28,0,0,0-23.21,2.62V22.16Zm23.21-4.07a49.28,49.28,0,0,0-23.21,2.62V13.13H35.32v5ZM18.1,11.77H4.36v-.48A1.63,1.63,0,0,1,6,9.66H16.47a1.63,1.63,0,0,1,1.63,1.63v.48Zm17.22,0H19.46v-.48a3,3,0,0,0-3-3H6a3,3,0,0,0-3,3v.48H2V6.94H35.32v4.83ZM2,3.16l9.6-1V4.9H2V3.16ZM2,57.57V51.31H35.32v6.26Z"/><path class="cls-2" d="M35.32,34v1.36H2V34Zm0,8v1.36H2V42Zm0,8v1.36H2V50Z"/></svg>