<svg id="Warstwa_1" data-name="Warstwa 1" xmlns="http://www.w3.org/2000/svg" viewBox="0 0 66.03 54.19"><defs><style>.cls-1{fill:#929497;fill-rule:evenodd;}</style></defs><title>Rozwiązania-wielkoformatowe</title><path class="cls-1" d="M60.27,4.66h-5V3.27A3.35,3.35,0,0,0,51.9,0H14.13a3.34,3.34,0,0,0-3.4,3.27V4.66h-5A5.66,5.66,0,0,0,0,10.2V18a5.56,5.56,0,0,0,4,5.25V45.76l-2.07,6a1.82,1.82,0,0,0,1.22,2.32,1.8,1.8,0,0,0,.6.1,1.9,1.9,0,0,0,1.81-1.27l2.18-6.31h.09v-.26l2.06-6A1.83,1.83,0,0,0,8.68,38a2.08,2.08,0,0,0-.85-.07V23.51h4.63V45.22H53.58V23.51h3.47V37a1.94,1.94,0,0,0-1.77-.29,1.83,1.83,0,0,0-1.22,2.32l4.33,12.59a1.9,1.9,0,0,0,1.82,1.26,2.08,2.08,0,0,0,.6-.09A1.82,1.82,0,0,0,62,50.49l-1.33-3.88h.19V23.45A5.61,5.61,0,0,0,66,18V10.2a5.65,5.65,0,0,0-5.76-5.54ZM12.92,3.27A1.19,1.19,0,0,1,14.13,2.1H51.9a1.2,1.2,0,0,1,1.22,1.17V4.66H12.92V3.27ZM51.39,23.51v19.6H14.65V19.49a8.23,8.23,0,0,1,1.8-4.84l1.77-1.87H47.81l1.77,1.87a8.23,8.23,0,0,1,1.8,4.84v4Z"/><path class="cls-1" d="M47.15,16.08H18.89a1.06,1.06,0,1,0,0,2.11H47.15a1.06,1.06,0,1,0,0-2.11Z"/></svg>