<svg id="Warstwa_1" data-name="Warstwa 1" xmlns="http://www.w3.org/2000/svg" viewBox="0 0 57.54 56.95"><defs><style>.cls-1{fill:#929497;fill-rule:evenodd;}</style></defs><title>Materiały-eksploatacyjne</title><path class="cls-1" d="M3.78,20.79a14.06,14.06,0,0,0,1.25,3L3.52,25.67a1.55,1.55,0,0,0,.12,2.07l2.6,2.61a1.56,1.56,0,0,0,2.07.12l1.9-1.5a13.32,13.32,0,0,0,3.09,1.3l.28,2.44a1.57,1.57,0,0,0,1.55,1.39h3.69a1.57,1.57,0,0,0,1.55-1.39l.27-2.35A13.6,13.6,0,0,0,24,29l1.84,1.45a1.55,1.55,0,0,0,2.07-.12l2.61-2.6a1.55,1.55,0,0,0,.11-2.07l-1.42-1.81a13.88,13.88,0,0,0,1.36-3.26l2.2-.25a1.57,1.57,0,0,0,1.38-1.55V15.12a1.57,1.57,0,0,0-1.38-1.55l-2.17-.25a13.28,13.28,0,0,0-1.31-3.22l1.34-1.69a1.56,1.56,0,0,0-.12-2.07l-2.6-2.6a1.56,1.56,0,0,0-2.07-.12l-1.64,1.3A13.83,13.83,0,0,0,20.76,3.5l-.24-2.12A1.57,1.57,0,0,0,19,0H15.28a1.57,1.57,0,0,0-1.55,1.38L13.49,3.5A13.69,13.69,0,0,0,10,5L8.31,3.62a1.56,1.56,0,0,0-2.07.12L3.64,6.35a1.54,1.54,0,0,0-.12,2.07l1.42,1.79a13.68,13.68,0,0,0-1.29,3.26l-2.27.26A1.56,1.56,0,0,0,0,15.28V19a1.56,1.56,0,0,0,1.38,1.55l2.4.28Zm13.35-10A6.09,6.09,0,1,1,11,16.91a6.09,6.09,0,0,1,6.09-6.09Z"/><path class="cls-1" d="M53.56,21.69l-2-1.64a1.54,1.54,0,0,0-2,.06l-1.07,1a11.51,11.51,0,0,0-2.86-.92l-.31-1.48a1.55,1.55,0,0,0-1.64-1.24l-2.54.22a1.54,1.54,0,0,0-1.41,1.49l0,1.5A11.69,11.69,0,0,0,37,22.12l-1.29-.85a1.54,1.54,0,0,0-2,.29l-1.64,2a1.53,1.53,0,0,0,.06,2.05l1.12,1.19a11.55,11.55,0,0,0-.83,2.74l-1.6.33a1.55,1.55,0,0,0-1.24,1.64L29.72,34a1.54,1.54,0,0,0,1.49,1.41l1.73.06a11.35,11.35,0,0,0,1.23,2.34l-1,1.47a1.54,1.54,0,0,0,.29,2L35.43,43a1.54,1.54,0,0,0,2-.06l1.28-1.19a10.78,10.78,0,0,0,2.61.85l.35,1.74a1.55,1.55,0,0,0,1.64,1.24l2.54-.22a1.54,1.54,0,0,0,1.41-1.49l.06-1.7A11.64,11.64,0,0,0,50,40.81l1.4.93a1.55,1.55,0,0,0,2-.29l1.64-2a1.53,1.53,0,0,0-.06-2l-1.13-1.19a10.85,10.85,0,0,0,.89-2.76l1.55-.31a1.56,1.56,0,0,0,1.23-1.64L57.32,29a1.54,1.54,0,0,0-1.49-1.41l-1.55-.05A10.91,10.91,0,0,0,53,25l.84-1.27a1.53,1.53,0,0,0-.27-2ZM44,36.36A5,5,0,1,1,48.54,31,5,5,0,0,1,44,36.36Z"/><path class="cls-1" d="M12.65,43.19a1.55,1.55,0,0,0-1.38,1.52l0,1.56a1.55,1.55,0,0,0,1.35,1.55l1.15.14a8.92,8.92,0,0,0,.81,2l-.74.91a1.54,1.54,0,0,0,.09,2.05L15,54a1.55,1.55,0,0,0,2.05.14l.92-.71a9.29,9.29,0,0,0,2.05.89l.13,1.19a1.53,1.53,0,0,0,1.51,1.38l1.57,0a1.55,1.55,0,0,0,1.55-1.34l.14-1.13a9.37,9.37,0,0,0,2.22-.86l.86.7a1.54,1.54,0,0,0,2.05-.1l1.12-1.09a1.55,1.55,0,0,0,.14-2.05l-.66-.86a9,9,0,0,0,.94-2.16l1-.1A1.55,1.55,0,0,0,34,46.44V44.88a1.52,1.52,0,0,0-1.34-1.55l-1-.13A9.34,9.34,0,0,0,30.82,41l.63-.77a1.54,1.54,0,0,0-.1-2.05l-1.09-1.11A1.55,1.55,0,0,0,28.21,37l-.74.58a9.36,9.36,0,0,0-2.25-1l-.1-1a1.55,1.55,0,0,0-1.52-1.38l-1.56,0a1.55,1.55,0,0,0-1.55,1.35l-.12,1a9.28,9.28,0,0,0-2.33,1l-.77-.63a1.54,1.54,0,0,0-2,.1L14.1,38A1.53,1.53,0,0,0,14,40.06l.66.86a8.7,8.7,0,0,0-.89,2.16l-1.08.11Zm10.08-1.77a4.06,4.06,0,1,1-4.11,4,4.06,4.06,0,0,1,4.11-4Z"/></svg>