<svg id="Warstwa_1" data-name="Warstwa 1" xmlns="http://www.w3.org/2000/svg" viewBox="0 0 70.81 48.52"><defs><style>.cls-1{fill:#929497;fill-rule:evenodd;}</style></defs><title>Software</title><path class="cls-1" d="M64.26,36.72V2.62A2.63,2.63,0,0,0,61.63,0H9.18A2.64,2.64,0,0,0,6.55,2.62v34.1L0,44.59a3.93,3.93,0,0,0,3.93,3.93h63a3.93,3.93,0,0,0,3.93-3.93l-6.55-7.87ZM40.65,47.21H30.17a.66.66,0,1,1,0-1.31H40.65a.66.66,0,1,1,0,1.31ZM24.59,44.59l2-2.4H44.22l2,2.4Zm36-12.51a2.29,2.29,0,0,1-2.29,2.29H12.53a2.29,2.29,0,0,1-2.28-2.29V4.64a2.29,2.29,0,0,1,2.28-2.29H58.28a2.3,2.3,0,0,1,2.29,2.29V32.08Z"/><path class="cls-1" d="M48.75,18.82l2-3-2.22-2.23-3,2a8.73,8.73,0,0,0-1-.38l-.71-3.58H40.64l-.71,3.58a8.73,8.73,0,0,0-1,.38l-3-2-2.23,2.22,2,3a6.44,6.44,0,0,0-.42,1l-3.54.71V23.7l3.54.71a7.54,7.54,0,0,0,.42,1l-2,3,2.23,2.23,3-2a6.15,6.15,0,0,0,1,.38l.72,3.59H43.8L44.51,29a6.62,6.62,0,0,0,1-.38l3,2,2.23-2.23-2-3a6.44,6.44,0,0,0,.42-1l3.55-.71V20.55l-3.55-.71a7.54,7.54,0,0,0-.42-1Zm-6.53,7a3.67,3.67,0,1,1,3.68-3.67,3.67,3.67,0,0,1-3.68,3.67Z"/><path class="cls-1" d="M30.55,15a6.24,6.24,0,0,0,.09-.77l2.28-1.13L32.35,11l-2.53.16a7.74,7.74,0,0,0-.47-.62l.81-2.4L28.24,7,26.57,8.94a4.88,4.88,0,0,0-.76-.07l-1.14-2.3-2.14.57.16,2.56c-.2.15-.43.28-.61.44l-2.41-.81-1.11,1.92,1.91,1.67a4.91,4.91,0,0,0-.09.77l-2.29,1.12L18.66,17l2.54-.17a4.81,4.81,0,0,0,.47.62l-.81,2.4,1.92,1.11L24.45,19a4.77,4.77,0,0,0,.76.07l1.14,2.3,2.13-.56-.16-2.57a6.37,6.37,0,0,0,.62-.44l2.4.81,1.11-1.92L30.55,15Zm-4.37,1.44A2.58,2.58,0,1,1,28,13.31a2.58,2.58,0,0,1-1.83,3.16Z"/></svg>