<svg id="Warstwa_1" data-name="Warstwa 1" xmlns="http://www.w3.org/2000/svg" viewBox="0 0 67.59 67.59"><defs><style>.cls-1{fill:#929497;}.cls-1,.cls-2{fill-rule:evenodd;}.cls-2{fill:#fff;}</style></defs><title>rozwiązania-dla-poligrafii</title><path class="cls-1" d="M17.63,66.12a1.47,1.47,0,0,1-1.47,1.47H11.75a1.47,1.47,0,0,1,0-2.94h4.41a1.47,1.47,0,0,1,1.47,1.47Z"/><path class="cls-1" d="M57.3,66.12a1.47,1.47,0,0,1-1.47,1.47H51.42a1.47,1.47,0,0,1,0-2.94h4.41a1.47,1.47,0,0,1,1.47,1.47Z"/><path class="cls-1" d="M61.71,36.73v7.35h4.23a1.65,1.65,0,0,1,.4,3.25l-4.63,1.16V63.18a2.94,2.94,0,0,1-2.94,2.94H8.82a2.94,2.94,0,0,1-2.94-2.94V48.49L1.25,47.33a1.65,1.65,0,0,1,.4-3.25H5.88V25A2.93,2.93,0,0,1,8.82,22h1.46V20.57a1.47,1.47,0,0,1,1.47-1.47H27.92a1.47,1.47,0,0,1,1.47,1.47V22H58.77A2.94,2.94,0,0,1,61.71,25v7.34h4.23A1.65,1.65,0,0,1,67.59,34a1.67,1.67,0,0,1-1.25,1.61l-4.63,1.15Z"/><path class="cls-2" d="M25,36.73H14.69a1.47,1.47,0,0,1-1.47-1.47V30.85H26.45v4.41A1.47,1.47,0,0,1,25,36.73Z"/><path class="cls-1" d="M61.71,25v5.87H5.88V25A2.93,2.93,0,0,1,8.82,22h1.46V20.57a1.47,1.47,0,0,1,1.47-1.47H27.92a1.47,1.47,0,0,1,1.47,1.47V22H58.77A2.94,2.94,0,0,1,61.71,25Z"/><path class="cls-2" d="M29.39,25v1.47a1.47,1.47,0,0,1-1.47,1.47H11.75a1.47,1.47,0,0,1-1.47-1.47V25a1.47,1.47,0,0,0,1.47,1.47H27.92A1.47,1.47,0,0,0,29.39,25Z"/><polygon class="cls-2" points="42.61 36.73 44.08 36.73 44.08 64.65 42.61 64.65 42.61 36.73 42.61 36.73"/><polygon class="cls-2" points="55.83 36.73 57.3 36.73 57.3 64.65 55.83 64.65 55.83 36.73 55.83 36.73"/><polygon class="cls-2" points="5.88 48.49 33.79 48.49 33.79 49.95 5.88 49.95 5.88 48.49 5.88 48.49"/><polygon class="cls-2" points="32.32 36.73 61.71 36.73 61.71 38.2 32.32 38.2 32.32 36.73 32.32 36.73"/><path class="cls-2" d="M23.51,52.16a.74.74,0,0,1-.74.73H16.9a.74.74,0,1,1,0-1.47h5.87a.74.74,0,0,1,.74.74Z"/><path class="cls-2" d="M23.51,61a.74.74,0,0,1-.74.74H16.9a.74.74,0,1,1,0-1.47h5.87a.74.74,0,0,1,.74.73Z"/><polygon class="cls-2" points="5.88 57.3 33.79 57.3 33.79 58.77 5.88 58.77 5.88 57.3 5.88 57.3"/><polygon class="cls-2" points="32.32 29.39 33.79 29.39 33.79 64.65 32.32 64.65 32.32 29.39 32.32 29.39"/><polygon class="cls-2" points="32.32 22.04 33.79 22.04 33.79 30.86 32.32 30.86 32.32 22.04 32.32 22.04"/><path class="cls-1" d="M38.2,7.35a1.47,1.47,0,0,1,1.47,1.47V26.45a1.47,1.47,0,1,1-2.94,0V8.82A1.47,1.47,0,0,1,38.2,7.35Z"/><path class="cls-1" d="M57.3,19.1H44.08a1.47,1.47,0,0,1-1.47-1.47V1.47A1.47,1.47,0,0,1,44.08,0H57.3a1.47,1.47,0,0,1,1.47,1.47V17.63A1.47,1.47,0,0,1,57.3,19.1Zm-1.1-1.88h-11a.7.7,0,0,1-.69-.7V2.58a.7.7,0,0,1,.69-.7h11a.7.7,0,0,1,.69.7V16.52a.7.7,0,0,1-.69.7Z"/><path class="cls-1" d="M44,10.28H38.2a1.47,1.47,0,1,1,0-2.93H44v2.93Z"/></svg>