<?xml version="1.0" encoding="UTF-8" standalone="no"?><!DOCTYPE svg PUBLIC "-//W3C//DTD SVG 1.1//EN" "http://www.w3.org/Graphics/SVG/1.1/DTD/svg11.dtd"><svg width="100%" height="100%" viewBox="0 0 150 150" version="1.1" xmlns="http://www.w3.org/2000/svg" xmlns:xlink="http://www.w3.org/1999/xlink" xml:space="preserve" xmlns:serif="http://www.serif.com/" style="fill-rule:evenodd;clip-rule:evenodd;stroke-linejoin:round;stroke-miterlimit:2;"><path d="M150,3c0,-1.656 -1.344,-3 -3,-3l-144,0c-1.656,0 -3,1.344 -3,3l0,144c0,1.656 1.344,3 3,3l144,0c1.656,0 3,-1.344 3,-3l0,-144Z" style="fill:#fff;"/><clipPath id="_clip1"><rect id="contex.svg" x="18.587" y="62.621" width="112.826" height="24.758"/></clipPath><g clip-path="url(#_clip1)"><g id="Warstwa_1-2"><path d="M63.782,74.659l0,0.755c0,3.85 -2.534,4.346 -5.759,4.346c-5.629,-0 -6.011,-2.185 -6.011,-7.262c0,-4.443 0.813,-6.709 5.686,-6.709c3.25,-0 5.857,0.365 5.857,4.24l-0,0.365l-2.047,0l-0,-0.414c-0,-2.437 -1.34,-2.526 -3.688,-2.526c-3.614,-0 -3.696,1.251 -3.696,5.621c0,3.842 0.155,5.02 4.135,5.02c2.559,-0 3.485,-0.293 3.485,-2.762l-0,-0.674l2.038,-0Z" style="fill:#b73c58;fill-rule:nonzero;"/><path d="M72.198,65.781c5.036,-0 6.011,1.226 6.011,6.993c-0,5.768 -0.975,6.978 -6.011,6.978c-5.037,-0 -6.019,-1.219 -6.019,-6.97c-0,-5.75 0.982,-7.001 6.019,-7.001Zm-0,12.306c3.639,-0 3.899,-0.577 3.899,-5.313c-0,-4.735 -0.26,-5.328 -3.899,-5.328c-3.639,-0 -3.899,0.576 -3.899,5.328c-0,4.752 0.26,5.321 3.899,5.321l-0,-0.008Z" style="fill:#b73c58;fill-rule:nonzero;"/><path d="M83.375,67.763l0.048,-0c0.65,-1.625 2.632,-1.82 4.184,-1.82c3.509,0 5.133,0.942 5.133,4.711l0,9.106l-2.063,-0l0,-9.236c0,-2.502 -0.95,-2.916 -3.249,-2.916c-3.33,0 -4.061,1.04 -4.061,4.192l-0,7.96l-1.999,-0l0,-13.663l2.039,0l-0.032,1.666Z" style="fill:#b73c58;fill-rule:nonzero;"/><path d="M103.974,67.608l-5.239,0l-0,8.659c-0,1.487 0.414,1.828 1.909,1.828c1.909,-0 1.909,-1.016 1.909,-2.323l-0,-1.008l1.933,0l-0,1.008c-0,2.705 -1.105,3.988 -3.891,3.988c-3.176,-0 -3.899,-0.918 -3.899,-4.11l0,-8.042l-1.811,0l-0,-1.624l1.811,-0l0,-3.339l2.039,0l-0,3.298l5.239,0l0,1.665Z" style="fill:#b73c58;fill-rule:nonzero;"/><path d="M118.222,75.463l-0,0.495c-0,3.615 -2.762,3.802 -5.784,3.802c-5.288,-0 -6.092,-1.771 -6.092,-6.978c-0,-5.686 1.243,-6.993 6.092,-6.993c4.395,-0 5.784,1.015 5.784,6.059l-0,1.381l-9.748,0c0,4.313 0.309,4.874 3.972,4.874c2.786,-0 3.688,-0.187 3.688,-2.112l0,-0.52l2.088,-0.008Zm-2.12,-3.899c-0.098,-3.875 -0.569,-4.11 -3.664,-4.11c-3.688,-0 -3.818,0.958 -3.972,4.11l7.636,0Z" style="fill:#b73c58;fill-rule:nonzero;"/><path d="M126.58,72.628l4.833,7.124l-2.453,-0l-3.509,-5.516l-3.517,5.516l-2.445,-0l4.898,-7.124l-4.387,-6.531l2.299,0l3.152,4.996l3.07,-4.996l2.372,0l-4.313,6.531Z" style="fill:#b73c58;fill-rule:nonzero;"/><path d="M103.974,67.592l-5.247,-0l-0,8.659c-0,1.486 0.414,1.819 1.917,1.819c1.909,0 1.909,-1.015 1.909,-2.315l-0,-1.039l1.933,-0l-0,1.015c-0,2.705 -1.105,3.98 -3.899,3.98c-3.176,0 -3.899,-0.91 -3.899,-4.102l-0,-8.017l-1.803,-0l-0,-1.665l1.803,-0l-0,-3.306l2.039,-0l-0,3.306l5.247,-0l0,1.665Z" style="fill:#b73c58;fill-rule:nonzero;"/><path d="M40.754,65.431l0.228,0c-0.285,0 -17.408,0.26 -19.812,0.203c-0.812,0 -2.185,-0.105 -2.185,-0.105l-0,0.057c0.114,0.601 0.219,1.324 0.301,2.063c0.243,2.193 0.349,4.549 0.349,4.549l-0,-0.057c3.541,-4.923 19.007,-6.515 21.119,-6.71Z" style="fill:#b73c58;fill-rule:nonzero;"/><path d="M37.432,85.275l-0.228,-0.065c-5.336,-1.624 -12.265,-4.24 -16.7,-7.781c-0.244,-0.187 -0.487,-0.382 -0.707,-0.585c-0.219,-0.203 -0.162,3.314 -1.178,10.267l0,0.203c0.052,-0.03 0.106,-0.055 0.163,-0.073c0.853,-0.341 5.978,-1.819 26.034,-0.041l-1,-0.227c-1.242,-0.292 -3.582,-0.885 -6.384,-1.698Z" style="fill:#e4973e;fill-rule:nonzero;"/><path d="M22.47,73.53c-0.147,4.175 18.325,6.994 24.222,7.79c-3.03,-6.296 -0.869,-13.476 -0.252,-15.19c-8.375,0.869 -23.816,3.062 -23.97,7.4Z" style="fill:#f1bb00;fill-rule:nonzero;"/><path d="M19.797,76.828c0.22,0.203 0.463,0.398 0.707,0.584c-0.246,-0.182 -0.482,-0.377 -0.707,-0.584Z" style="fill:#fff;fill-rule:nonzero;"/><path d="M57.812,83.862l-1.096,3.477l-0.602,-0l-0.739,-2.51l-0.089,-0.309l-0,-0.154l-0.049,-0.163l-0.04,0.163l-0.049,0.154l-0.09,0.317l-0.747,2.502l-0.56,-0l-1.073,-3.477l0.407,0l0.747,2.494l0.106,0.341l0.097,0.341l0.097,-0.341l0.098,-0.333l0.739,-2.502l0.585,0l0.731,2.502l0.097,0.333l0.098,0.341l0.097,-0.341l0.106,-0.341l0.764,-2.494l0.365,0Z" style="fill-rule:nonzero;"/><path d="M62.028,83.854l-0,3.485l-0.398,-0l-0,-1.617l-2.015,0l0,1.617l-0.398,-0l0,-3.485l0.398,-0l0,1.535l2.015,0l-0,-1.535l0.398,-0Z" style="fill-rule:nonzero;"/><path d="M63.985,84.195l0,1.17l1.763,-0l0,0.341l-1.763,-0l0,1.291l1.836,0l0,0.342l-2.234,-0l0,-3.485l2.234,-0l0,0.341l-1.836,0Z" style="fill-rule:nonzero;"/><path d="M70.329,83.854l0,3.485l-0.649,-0l-1.446,-2.372l-0.236,-0.39l-0.114,-0.195l-0.121,-0.195l-0.009,-0l0,3.152l-0.389,-0l-0,-3.485l0.641,-0l1.267,2.071l0.325,0.553l0.171,0.268l0.154,0.276l0.016,-0l-0.008,-0.13l0,-3.038l0.398,-0Z" style="fill-rule:nonzero;"/><g id="_157346584"><rect id="_157346896" x="74.366" y="83.854" width="0.398" height="3.485" style="fill-rule:nonzero;"/></g><path d="M80.28,83.862l-0,3.477l-0.398,-0l-0,-3.201l-0,0.163l-0.138,0.162l-1.178,2.876l-0.39,-0l-1.178,-2.876l-0.065,-0.162l0,-0.163l0,3.168l-0.438,0l-0,-3.444l0.682,0l0.942,2.226l0.146,0.365l0.073,0.187l0.065,0.179l0.065,-0.179c0.031,-0.06 0.055,-0.122 0.074,-0.187l0.154,-0.357l0.918,-2.25l0.666,0.016Z" style="fill-rule:nonzero;"/><path d="M84,86.307l-0.772,-2.128l-0.763,2.128l1.535,-0Zm0.114,0.292l-1.763,0l-0.268,0.74l-0.414,-0l1.275,-3.477l0.552,0l1.3,3.477l-0.414,-0l-0.268,-0.74Z" style="fill-rule:nonzero;"/><path d="M87.42,85.6l1.494,0l0,0.382c0,0.634 -0.073,1.024 -0.227,1.17c-0.369,0.203 -0.793,0.283 -1.21,0.227c-0.415,0.052 -0.835,-0.043 -1.186,-0.268c-0.221,-0.353 -0.313,-0.772 -0.26,-1.186l-0,-0.812c-0.049,-0.369 0.057,-0.743 0.292,-1.032c0.355,-0.21 0.769,-0.298 1.178,-0.251c0.389,-0.034 0.781,0.022 1.145,0.162c0.179,0.114 0.26,0.365 0.26,0.755l0,0.13l-0.381,0l-0,-0.089c-0,-0.284 -0.057,-0.455 -0.179,-0.528c-0.295,-0.09 -0.603,-0.123 -0.91,-0.097c-0.281,-0.028 -0.564,0.028 -0.812,0.162c-0.114,0.108 -0.171,0.379 -0.171,0.812l0,0.951c0,0.438 0.057,0.714 0.187,0.812c0.318,0.132 0.665,0.182 1.007,0.146c0.423,0 0.683,-0.04 0.813,-0.138c0.129,-0.097 0.154,-0.341 0.154,-0.747l-0,-0.211l-1.194,-0l-0,-0.35Z" style="fill-rule:nonzero;"/><g id="_157348096"><rect id="_157347880" x="90.458" y="83.854" width="0.398" height="3.485" style="fill-rule:nonzero;"/></g><path d="M95.518,83.854l0,3.485l-0.65,-0l-1.445,-2.372l-0.35,-0.585l-0.113,-0.195l-0.017,-0l0.008,0.13l0,3.022l-0.398,-0l0,-3.485l0.642,-0l1.267,2.071l0.325,0.553l0.171,0.268l0.162,0.276l0.008,-0l-0.008,-0.13l0,-3.038l0.398,-0Z" style="fill-rule:nonzero;"/><path d="M98.426,85.6l1.487,0l-0,0.382c-0,0.634 -0.073,1.024 -0.228,1.17c-0.368,0.203 -0.793,0.283 -1.21,0.227c-0.412,0.054 -0.83,-0.041 -1.178,-0.268c-0.228,-0.351 -0.323,-0.771 -0.268,-1.186l0,-0.812c-0.048,-0.369 0.058,-0.743 0.293,-1.032c0.355,-0.208 0.768,-0.297 1.177,-0.251c0.389,-0.034 0.781,0.022 1.146,0.162c0.178,0.114 0.26,0.365 0.26,0.755l-0,0.13l-0.382,0l-0,-0.089c-0,-0.284 -0.057,-0.455 -0.179,-0.528c-0.294,-0.09 -0.603,-0.123 -0.91,-0.097c-0.28,-0.028 -0.563,0.028 -0.812,0.162c-0.114,0.108 -0.171,0.379 -0.171,0.812l0,0.951c0,0.438 0.065,0.714 0.187,0.812c0.321,0.133 0.67,0.183 1.016,0.146c0.278,0.045 0.564,-0.003 0.812,-0.138c0.106,-0.097 0.154,-0.341 0.154,-0.747l0,-0.211l-1.194,-0l0,-0.35Z" style="fill-rule:nonzero;"/><path d="M107.638,83.862l-0,3.477l-0.398,-0l-0,-3.201l-0,0.163l-0.065,0.162l-1.178,2.876l-0.39,-0l-1.251,-2.876l-0.065,-0.162l-0,-0.163l-0,3.168l-0.398,0l-0,-3.444l0.682,0l0.861,2.226l0.146,0.365l0.074,0.187l0.073,0.179l0.073,-0.179c0.025,-0.061 0.047,-0.123 0.065,-0.187l0.154,-0.357l0.918,-2.25l0.699,0.016Z" style="fill-rule:nonzero;"/><path d="M111.358,86.307l-0.813,-2.128l-0.747,2.128l1.56,-0Zm0.114,0.292l-1.763,0l-0.26,0.74l-0.422,-0l1.275,-3.477l0.552,0l1.3,3.477l-0.414,-0l-0.268,-0.74Z" style="fill-rule:nonzero;"/><path d="M114.761,84.228l0,3.111l-0.398,-0l0,-3.111l-1.129,-0l0,-0.374l2.648,-0l0,0.374l-1.121,-0Z" style="fill-rule:nonzero;"/><path d="M118.482,84.228l-0,3.111l-0.399,-0l0,-3.111l-1.129,-0l0,-0.374l2.648,-0l0,0.374l-1.12,-0Z" style="fill-rule:nonzero;"/><path d="M121.243,84.195l0,1.17l1.763,-0l-0,0.341l-1.763,-0l0,1.291l1.836,0l0,0.342l-2.234,-0l0,-3.485l2.234,-0l0,0.341l-1.836,0Z" style="fill-rule:nonzero;"/><path d="M125.02,85.592l1.129,0c0.212,0.022 0.425,-0.023 0.61,-0.13c0.122,-0.14 0.181,-0.326 0.162,-0.512c0.025,-0.21 -0.017,-0.424 -0.122,-0.609c-0.145,-0.119 -0.334,-0.172 -0.52,-0.146l-1.259,0l0,1.397Zm-0.398,1.747l0,-3.477l1.625,0c0.289,-0.033 0.58,0.045 0.812,0.219c0.176,0.217 0.258,0.495 0.228,0.772c0.019,0.229 -0.023,0.459 -0.122,0.666c-0.12,0.148 -0.297,0.24 -0.488,0.252c0.374,-0 0.561,0.252 0.561,0.674l-0,0.885l-0.382,0l0,-0.812c0,-0.398 -0.179,-0.601 -0.52,-0.601l-1.307,0l-0,1.405l-0.407,0.017Z" style="fill-rule:nonzero;"/><path d="M131.291,84.796l-0.373,0c0.026,-0.187 -0.024,-0.378 -0.139,-0.528c-0.204,-0.097 -0.432,-0.136 -0.657,-0.114c-0.276,-0.027 -0.555,0.012 -0.813,0.114c-0.122,0.073 -0.178,0.228 -0.178,0.479c-0,0.252 0.04,0.455 0.138,0.512c0.259,0.095 0.536,0.136 0.812,0.122c0.356,-0.019 0.711,0.054 1.032,0.211c0.146,0.114 0.219,0.366 0.219,0.764c-0,0.398 -0.081,0.706 -0.252,0.812c-0.351,0.16 -0.737,0.224 -1.121,0.187c-0.345,0.036 -0.693,-0.032 -0.999,-0.195c-0.213,-0.212 -0.307,-0.517 -0.252,-0.812l0,-0.155l0.39,0l0,0.09c0,0.308 0.049,0.503 0.138,0.576c0.229,0.104 0.482,0.144 0.731,0.114c0.275,0.025 0.553,-0.011 0.812,-0.106c0.098,-0.081 0.155,-0.284 0.155,-0.609c0.015,-0.151 -0.022,-0.303 -0.106,-0.43c-0.132,-0.088 -0.288,-0.131 -0.447,-0.122l-0.787,-0c-0.027,0.003 -0.054,0.004 -0.081,0.004c-0.446,-0 -0.812,-0.367 -0.812,-0.812c-0,-0.037 0.002,-0.074 0.007,-0.11c-0.044,-0.296 0.052,-0.597 0.26,-0.812c0.315,-0.163 0.671,-0.23 1.024,-0.195c0.348,-0.038 0.7,0.024 1.015,0.178c0.196,0.222 0.282,0.521 0.235,0.813l0.049,0.024Z" style="fill-rule:nonzero;"/></g></g></svg>