<?xml version="1.0" encoding="UTF-8" standalone="no"?><!DOCTYPE svg PUBLIC "-//W3C//DTD SVG 1.1//EN" "http://www.w3.org/Graphics/SVG/1.1/DTD/svg11.dtd"><svg width="100%" height="100%" viewBox="0 0 150 150" version="1.1" xmlns="http://www.w3.org/2000/svg" xmlns:xlink="http://www.w3.org/1999/xlink" xml:space="preserve" xmlns:serif="http://www.serif.com/" style="fill-rule:evenodd;clip-rule:evenodd;stroke-linejoin:round;stroke-miterlimit:2;"><path d="M150,3c0,-1.656 -1.344,-3 -3,-3l-144,0c-1.656,0 -3,1.344 -3,3l0,144c0,1.656 1.344,3 3,3l144,0c1.656,0 3,-1.344 3,-3l0,-144Z" style="fill:#fff;"/><path d="M29.956,97.845l-11.369,0l-0,-45.737l11.369,-0l0,18.623l20.765,-18.623l14.702,-0l-22.207,18.725l23.492,27.003l-14.6,0l-16.854,-20.057l-5.298,4.591l0,15.475Z" style="fill:#0060a9;fill-rule:nonzero;"/><rect x="69.66" y="52.155" width="11.36" height="45.738" style="fill:#0060a9;fill-rule:nonzero;"/><path d="M101.021,97.892l-11.36,0l-0,-45.737l24.833,-0c10.531,-0 16.9,5.67 16.9,14.656c0,4.134 -2.728,14.581 -17.356,14.581l-13.036,0l0.019,16.5Zm10.531,-24.368c8.529,0 8.529,-5.121 8.529,-7.16c0,-4.46 -2.952,-6.304 -10,-6.304l-9.06,-0l-0,13.464l10.531,0Z" style="fill:#0060a9;fill-rule:nonzero;"/></svg>