<?xml version="1.0" encoding="UTF-8" standalone="no"?><!DOCTYPE svg PUBLIC "-//W3C//DTD SVG 1.1//EN" "http://www.w3.org/Graphics/SVG/1.1/DTD/svg11.dtd"><svg width="100%" height="100%" viewBox="0 0 625 625" version="1.1" xmlns="http://www.w3.org/2000/svg" xmlns:xlink="http://www.w3.org/1999/xlink" xml:space="preserve" xmlns:serif="http://www.serif.com/" style="fill-rule:evenodd;clip-rule:evenodd;stroke-linejoin:round;stroke-miterlimit:2;"><path d="M625,12.5c0,-6.9 -5.6,-12.5 -12.5,-12.5l-600,0c-6.9,0 -12.5,5.6 -12.5,12.5l0,600c0,6.9 5.6,12.5 12.5,12.5l600,0c6.9,0 12.5,-5.6 12.5,-12.5l0,-600Z" style="fill:#fff;"/><path d="M274.486,285.196c-8.487,0 -18.139,3.934 -24.037,11.811l0.004,-0.016l-0.004,0.004l0.004,-10.563l-20.242,0l-0,73.717l20.238,0l0,-41.945c0,-7.549 5.854,-15.575 16.692,-15.575c8.375,-0 17.042,5.826 17.042,15.575l0,41.945l20.243,0l-0,-45.696c-0,-16.955 -12.131,-29.257 -29.94,-29.257m173.81,1.24l-18.3,50.214l-18.3,-50.214l-23.123,0l30.33,73.693l22.182,0l30.331,-73.693l-23.12,0Zm-278.517,22.207c3.447,-4.629 8.938,-7.346 15.57,-7.346c7.294,-0 12.828,4.165 15.689,10.315l-35.365,14.672c-0.965,-7.53 0.961,-13.419 4.106,-17.641m38.889,28.842c-8.519,6.305 -13.387,7.809 -21.156,7.809c-6.992,0 -12.466,-2.17 -16.325,-5.977l51.751,-21.469c-1.13,-8 -4.167,-15.147 -8.838,-20.581c-6.8,-7.897 -16.865,-12.075 -29.119,-12.075c-22.257,0 -39.04,16.42 -39.04,38.108c-0,22.25 16.823,38.103 41.272,38.103c13.698,-0 27.704,-6.492 34.256,-14.078l-12.801,-9.84Zm-64.657,4.078l-46.007,-0l0,-77.176l-20.519,-0l0,95.762l66.526,0l0,-18.586Zm363.753,-39.024c-11.305,-0 -19.514,8.567 -19.514,20.753c0,11.636 8.695,20.754 19.785,20.754c11.308,-0 19.513,-8.803 19.513,-20.754c-0,-11.636 -8.692,-20.753 -19.784,-20.753m-0,58.853c-22.138,0 -39.485,-16.493 -39.485,-38.1c0,-21.365 17.466,-38.1 39.756,-38.1c22.138,0 39.48,16.492 39.48,38.1c-0,21.36 -17.463,38.099 -39.751,38.099m-155.85,-58.852c-11.304,-0 -19.508,8.567 -19.508,20.753c-0,11.636 8.691,20.754 19.783,20.754c11.305,-0 19.509,-8.803 19.509,-20.754c0,-11.636 -8.691,-20.753 -19.784,-20.753m0,58.853c-22.138,0 -39.48,-16.493 -39.48,-38.1c0,-21.365 17.462,-38.1 39.755,-38.1c22.135,0 39.48,16.492 39.48,38.1c0,21.36 -17.465,38.099 -39.755,38.099" style="fill:#e60012;fill-rule:nonzero;"/></svg>