<?xml version="1.0" encoding="UTF-8" standalone="no"?><!DOCTYPE svg PUBLIC "-//W3C//DTD SVG 1.1//EN" "http://www.w3.org/Graphics/SVG/1.1/DTD/svg11.dtd"><svg width="100%" height="100%" viewBox="0 0 150 150" version="1.1" xmlns="http://www.w3.org/2000/svg" xmlns:xlink="http://www.w3.org/1999/xlink" xml:space="preserve" xmlns:serif="http://www.serif.com/" style="fill-rule:evenodd;clip-rule:evenodd;stroke-linejoin:round;stroke-miterlimit:2;"><path d="M150,3c0,-1.656 -1.344,-3 -3,-3l-144,0c-1.656,0 -3,1.344 -3,3l0,144c0,1.656 1.344,3 3,3l144,0c1.656,0 3,-1.344 3,-3l0,-144Z" style="fill:#fff;"/><path d="M41.863,82.082l0,-18.72l-4.556,-0l-7.082,7.082l11.638,11.638Z" style="fill:#058b44;fill-rule:nonzero;"/><path d="M18.587,67.918l-0,18.72l4.556,0l7.082,-7.082l-11.638,-11.638Z" style="fill:#6fbe44;fill-rule:nonzero;"/><path d="M23.143,86.638l18.72,0l0,-4.556l-7.082,-7.082l-11.638,11.638Z" style="fill:#006547;fill-rule:nonzero;"/><path d="M37.307,63.362l-18.72,-0l-0,4.556l7.082,7.082l11.638,-11.638Z" style="fill:#39b54a;fill-rule:nonzero;"/><path d="M83.221,70.481l-0.143,-0l-4.706,4.705l-4.706,-4.705l-0.143,-0l0,2.275l3.62,3.62l-3.62,3.601l0,2.295l0.145,0l4.677,-4.718l4.729,4.718l0.147,0l-0,-2.305l-3.656,-3.62l3.656,-3.682l-0,-2.184Zm37.647,0.128c-1.347,-0.001 -2.592,0.737 -3.236,1.92l-0.02,0l-0.181,-1.795l-1.448,-0l0,11.271l1.79,-0l0,-6.491c0,-2.61 2.109,-3.417 3.841,-3.062l-0,-1.781c-0.248,-0.045 -0.499,-0.066 -0.751,-0.064l0.005,0.002Zm-13.14,1.564c2.128,-0 3.736,1.712 3.736,4.195c-0,2.484 -1.608,4.189 -3.736,4.189c-2.082,-0 -3.738,-1.684 -3.738,-4.163c0,-2.534 1.649,-4.218 3.736,-4.218l0.002,-0.003Zm-0.335,-1.671c-2.693,0.002 -5.198,2.272 -5.198,5.892c-0,3.569 2.505,5.866 5.198,5.866c1.69,-0 3.278,-0.793 4.132,-2.353l0.02,-0l0.21,2.098l1.462,-0l0,-11.271l-1.462,-0l-0.208,2.109l-0.02,-0c-0.856,-1.544 -2.442,-2.339 -4.132,-2.339l-0.002,-0.002Zm-10.82,0c-1.502,0 -2.588,0.793 -3.234,1.962c-0.543,-1.252 -1.544,-1.962 -3.153,-1.962c-1.398,0.002 -2.442,0.824 -3.001,1.91l-0.042,-0l-0.208,-1.671l-1.399,0l-0,11.264l1.793,-0l0,-7.117c0,-1.378 0.857,-2.672 2.42,-2.672c1.524,0 2.192,0.905 2.192,2.534l0,7.255l1.794,-0l-0,-7.24c-0,-1.316 0.878,-2.547 2.402,-2.547c1.524,0 2.212,0.905 2.212,2.534l-0,7.253l1.795,-0l0,-7.514c0,-2.353 -1.108,-3.982 -3.569,-3.982l-0.002,-0.007Zm-29.716,1.611c1.566,0 3.158,1.014 3.22,3.416l-6.769,-0c0.105,-1.858 1.525,-3.416 3.551,-3.416l-0.002,0Zm-0.018,-1.611c-2.777,0 -5.302,2.255 -5.302,5.886c0,3.528 2.317,5.866 5.637,5.866c1.464,0.034 2.901,-0.411 4.09,-1.267l0,-1.906c-1.119,0.974 -2.547,1.521 -4.031,1.544c-1.991,0 -3.764,-1.236 -3.927,-3.553l8.438,0c0.022,-0.229 0.065,-0.724 0.065,-0.905c0,-3.715 -2.235,-5.656 -4.97,-5.656l-0,-0.009Zm-15.282,11.503l9.036,-0l-0,-1.783l-7.197,-0l0,-13.651l-1.839,-0l0,15.434Zm79.856,-9.412l-4.116,3.748l4.116,3.769l0,2.171l-0.134,0l-6.109,-5.547l0,5.271l-1.77,-0l0,-15.957l1.77,-0l0,9.967l6.082,-5.534l0.161,-0l0,2.112Z" style="fill:#231f20;fill-rule:nonzero;"/></svg>